<svg xmlns="http://www.w3.org/2000/svg" viewBox="0 0 24.03 29"  preserveAspectRatio="xMinYMid">
    <defs>
        <clipPath id="clip-path-ag">
            <path fill="none" d="M0 0h24.03v29H0z"/>
        </clipPath>
    </defs>
    <g>
        <g>
            <g clip-path="url(#clip-path-ag)">
                <path d="M12 28.48V.4H.41V18C.41 24 5.6 28.62 12 28.62z" fill="#171714"/>
                <path class="waves" fill="#fff" d="M.51 16.81a1.53 1.53 0 0 0 .71-.27 1.78 1.78 0 0 1 1-.28 1.8 1.8 0 0 1 1 .28 1.72 1.72 0 0 0 1 .29 1.73 1.73 0 0 0 1-.29 1.79 1.79 0 0 1 1-.28 1.77 1.77 0 0 1 1 .28 1.76 1.76 0 0 0 1 .29 1.73 1.73 0 0 0 1-.29 1.79 1.79 0 0 1 1-.28 1.77 1.77 0 0 1 1 .28 1.5 1.5 0 0 0 .62.25v-6.07a1.49 1.49 0 0 1-.62-.25 1.74 1.74 0 0 0-1-.29 1.76 1.76 0 0 0-1 .29 1.72 1.72 0 0 1-1 .28 1.75 1.75 0 0 1-1-.28 1.74 1.74 0 0 0-1-.29 1.76 1.76 0 0 0-1 .29 1.72 1.72 0 0 1-1 .28 1.72 1.72 0 0 1-1-.28 1.77 1.77 0 0 0-1-.29 1.75 1.75 0 0 0-1 .29 1.51 1.51 0 0 1-.71.26z"/>
                <path d="M12.12 14.8a1.48 1.48 0 0 1-.62-.26 1.69 1.69 0 0 0-1-.29 1.71 1.71 0 0 0-1 .29 1.69 1.69 0 0 1-1 .3 1.72 1.72 0 0 1-1-.3 1.7 1.7 0 0 0-1-.29 1.7 1.7 0 0 0-1 .29 1.69 1.69 0 0 1-1 .3 1.69 1.69 0 0 1-1-.3 1.72 1.72 0 0 0-1-.29 1.69 1.69 0 0 0-1 .29 1.53 1.53 0 0 1-.71.27m11.62-2.09a1.48 1.48 0 0 1-.62-.26 1.74 1.74 0 0 0-1-.29 1.75 1.75 0 0 0-1 .29 1.71 1.71 0 0 1-1 .3 1.73 1.73 0 0 1-1-.3 1.74 1.74 0 0 0-1-.29 1.75 1.75 0 0 0-1 .29 1.71 1.71 0 0 1-1 .3 1.7 1.7 0 0 1-1-.3 1.77 1.77 0 0 0-1-.29 1.74 1.74 0 0 0-1 .29 1.54 1.54 0 0 1-.71.27m0 4.16a1.52 1.52 0 0 0 .71-.28 1.75 1.75 0 0 1 1-.29 1.78 1.78 0 0 1 1 .29 1.69 1.69 0 0 0 1 .3 1.7 1.7 0 0 0 1-.3 1.76 1.76 0 0 1 1-.29 1.75 1.75 0 0 1 1 .29 1.72 1.72 0 0 0 1 .3 1.7 1.7 0 0 0 1-.3 1.76 1.76 0 0 1 1-.29 1.75 1.75 0 0 1 1 .29 1.48 1.48 0 0 0 .62.26m0-6.24a1.47 1.47 0 0 1-.62-.26 1.75 1.75 0 0 0-1-.29 1.76 1.76 0 0 0-1 .29 1.7 1.7 0 0 1-1 .3 1.72 1.72 0 0 1-1-.3 1.75 1.75 0 0 0-1-.29 1.76 1.76 0 0 0-1 .29 1.7 1.7 0 0 1-1 .3 1.69 1.69 0 0 1-1-.3 1.78 1.78 0 0 0-1-.29 1.75 1.75 0 0 0-1 .29 1.52 1.52 0 0 1-.71.27" stroke-miterlimit="11.47" stroke-width=".22" stroke="#171714" fill="none"/>
                <path d="M12 28.62c6.4 0 11.59-4.9 11.59-10.94V.45H12v28.17z" fill="#2673bd"/>
            </g>
            <path class="stars" fill="#fff" d="M20.47 8.35l.67 1.8h1.78l-1.41.96.54 1.73-1.58-1.01-1.57 1 .54-1.72-1.41-.96h1.77l.67-1.8zM14.98 8.35l.67 1.8h1.78l-1.41.96.54 1.73-1.58-1.01-1.57 1 .54-1.72-1.41-.96h1.78l.66-1.8zM17.73 13.15l.66 1.8h1.78l-1.41.96.54 1.73-1.57-1.01-1.58 1.01.55-1.73-1.41-.96h1.77l.67-1.8z"/>
            <path d="M.23 17.67V.23H23.8v17.44c0 7.38-6.71 11.1-11.8 11.1-5.48 0-11.78-3.71-11.77-11.1z" stroke-miterlimit="3.86" stroke-width=".45" stroke="#171714" fill="none"/>
        </g>
    </g>
</svg>
