<?xml version="1.0" encoding="utf-8"?>
<!-- Generator: Adobe Illustrator 23.0.3, SVG Export Plug-In . SVG Version: 6.00 Build 0)  -->
<svg version="1.1" id="Layer_1" xmlns="http://www.w3.org/2000/svg" xmlns:xlink="http://www.w3.org/1999/xlink" x="0px" y="0px"
	 viewBox="0 0 24 29" style="enable-background:new 0 0 24 29;" xml:space="preserve">
<style type="text/css">
	.st0{clip-path:url(#SVGID_2_);}
	.st1{fill:#171714;}
	.st2{fill:#FFFFFF;}
	.st3{fill:none;stroke:#171714;stroke-width:0.22;stroke-miterlimit:11.47;}
	.st4{fill:#2673BD;}
	.st5{fill:none;stroke:#171714;stroke-width:0.45;stroke-miterlimit:3.86;}
</style>
<g>
	<g>
		<g>
			<defs>
				<rect id="SVGID_1_" width="24" height="29"/>
			</defs>
			<clipPath id="SVGID_2_">
				<use xlink:href="#SVGID_1_"  style="overflow:visible;"/>
			</clipPath>
			<g class="st0">
				<path class="st1" d="M12,28.5V0.4H0.4V18c0,6,5.2,10.6,11.6,10.6V28.5z"/>
				<path class="st2" d="M0.5,16.8c0.3,0,0.5-0.1,0.7-0.3c0.3-0.2,0.6-0.3,1-0.3c0.4,0,0.7,0.1,1,0.3c0.3,0.2,0.6,0.3,1,0.3
					c0.4,0,0.7-0.1,1-0.3c0.3-0.2,0.6-0.3,1-0.3c0.4,0,0.7,0.1,1,0.3c0.3,0.2,0.6,0.3,1,0.3c0.4,0,0.7-0.1,1-0.3
					c0.3-0.2,0.6-0.3,1-0.3c0.4,0,0.7,0.1,1,0.3c0.2,0.1,0.4,0.2,0.6,0.3v-6.1c-0.2,0-0.4-0.1-0.6-0.3c-0.3-0.2-0.6-0.3-1-0.3
					c-0.4,0-0.7,0.1-1,0.3c-0.3,0.2-0.6,0.3-1,0.3c-0.4,0-0.7-0.1-1-0.3c-0.3-0.2-0.6-0.3-1-0.3c-0.4,0-0.7,0.1-1,0.3
					c-0.3,0.2-0.6,0.3-1,0.3c-0.4,0-0.7-0.1-1-0.3c-0.3-0.2-0.6-0.3-1-0.3c-0.4,0-0.7,0.1-1,0.3c-0.2,0.1-0.5,0.2-0.7,0.3L0.5,16.8z
					"/>
				<path class="st3" d="M11.8,14.9c-0.2,0-0.4-0.1-0.6-0.3c-0.3-0.2-0.6-0.3-1-0.3c-0.4,0-0.7,0.1-1,0.3c-0.3,0.2-0.6,0.3-1,0.3
					c-0.4,0-0.7-0.1-1-0.3c-0.3-0.2-0.6-0.3-1-0.3c-0.4,0-0.7,0.1-1,0.3c-0.3,0.2-0.6,0.3-1,0.3c-0.4,0-0.7-0.1-1-0.3
					c-0.3-0.2-0.6-0.3-1-0.3c-0.4,0-0.7,0.1-1,0.3c-0.2,0.1-0.5,0.2-0.7,0.3 M11.8,12.8c-0.2,0-0.4-0.1-0.6-0.3
					c-0.3-0.2-0.6-0.3-1-0.3c-0.4,0-0.7,0.1-1,0.3c-0.3,0.2-0.6,0.3-1,0.3c-0.4,0-0.7-0.1-1-0.3c-0.3-0.2-0.6-0.3-1-0.3
					c-0.4,0-0.7,0.1-1,0.3c-0.3,0.2-0.6,0.3-1,0.3c-0.4,0-0.7-0.1-1-0.3c-0.3-0.2-0.6-0.3-1-0.3c-0.4,0-0.7,0.1-1,0.3
					c-0.2,0.1-0.5,0.2-0.7,0.3 M0.5,17c0.3,0,0.5-0.1,0.7-0.3c0.3-0.2,0.6-0.3,1-0.3c0.4,0,0.7,0.1,1,0.3c0.3,0.2,0.6,0.3,1,0.3
					c0.4,0,0.7-0.1,1-0.3c0.3-0.2,0.6-0.3,1-0.3c0.4,0,0.7,0.1,1,0.3c0.3,0.2,0.6,0.3,1,0.3c0.4,0,0.7-0.1,1-0.3
					c0.3-0.2,0.6-0.3,1-0.3c0.4,0,0.7,0.1,1,0.3c0.2,0.1,0.4,0.2,0.6,0.3 M11.8,10.7c-0.2,0-0.4-0.1-0.6-0.3c-0.3-0.2-0.6-0.3-1-0.3
					c-0.4,0-0.7,0.1-1,0.3c-0.3,0.2-0.6,0.3-1,0.3c-0.4,0-0.7-0.1-1-0.3c-0.3-0.2-0.6-0.3-1-0.3c-0.4,0-0.7,0.1-1,0.3
					c-0.3,0.2-0.6,0.3-1,0.3c-0.4,0-0.7-0.1-1-0.3c-0.3-0.2-0.6-0.3-1-0.3c-0.4,0-0.7,0.1-1,0.3c-0.2,0.1-0.5,0.2-0.7,0.3"/>
				<path class="st4" d="M12,28.6c6.4,0,11.6-4.9,11.6-10.9V0.4H12V28.6z"/>
			</g>
		</g>
		<path class="st2" d="M20.5,8.4l0.7,1.8h1.8l-1.4,1l0.5,1.7l-1.6-1l-1.6,1l0.5-1.7l-1.4-1h1.8C19.8,10.1,20.5,8.3,20.5,8.4z
			 M15,8.4l0.7,1.8h1.8l-1.4,1l0.5,1.7l-1.6-1l-1.6,1l0.5-1.7l-1.4-1h1.8C14.3,10.1,15,8.3,15,8.4z M17.7,13.1l0.7,1.8h1.8l-1.4,1
			l0.5,1.7l-1.6-1l-1.6,1l0.5-1.7l-1.4-1h1.8C17.1,14.9,17.7,13.1,17.7,13.1z"/>
		<path class="st5" d="M0.2,17.7V0.2h23.6v17.4c0,7.4-6.7,11.1-11.8,11.1C6.5,28.8,0.2,25.1,0.2,17.7z"/>
	</g>
</g>
</svg>
