<svg xmlns="http://www.w3.org/2000/svg" xmlns:xlink="http://www.w3.org/1999/xlink" viewBox="0 0 24.02 28.99">
	<defs>
		<clipPath id="a" transform="translate(0 -0.01)">
			<rect width="24.03" height="29" fill="none" />
		</clipPath>
	</defs>
	<g clip-path="url(#a)">
		<path d="M12,28.48V.4H.41V18C.41,24,5.6,28.62,12,28.62Z" transform="translate(0 -0.01)" fill="#171714" />
		<path d="M.51,16.81a1.5,1.5,0,0,0,.71-.27,1.78,1.78,0,0,1,1-.28,1.78,1.78,0,0,1,1,.28,1.7,1.7,0,0,0,1,.29,1.7,1.7,0,0,0,1-.29,1.78,1.78,0,0,1,1-.28,1.78,1.78,0,0,1,1,.28,1.72,1.72,0,0,0,1,.29,1.7,1.7,0,0,0,1-.29,1.93,1.93,0,0,1,2,0,1.59,1.59,0,0,0,.62.25V10.72a1.59,1.59,0,0,1-.62-.25,1.7,1.7,0,0,0-1-.29,1.72,1.72,0,0,0-1,.29,1.93,1.93,0,0,1-2,0,1.7,1.7,0,0,0-1-.29,1.72,1.72,0,0,0-1,.29,1.78,1.78,0,0,1-1,.28,1.78,1.78,0,0,1-1-.28,1.79,1.79,0,0,0-1-.29,1.7,1.7,0,0,0-1,.29,1.53,1.53,0,0,1-.71.26Z" transform="translate(0 -0.01)" fill="#fff" />
		<path d="M11.85,14.9a1.31,1.31,0,0,1-.62-.26,1.75,1.75,0,0,0-1-.29,1.77,1.77,0,0,0-1,.29,1.62,1.62,0,0,1-1,.3,1.62,1.62,0,0,1-1-.3,1.75,1.75,0,0,0-1-.29,1.75,1.75,0,0,0-1,.29,1.62,1.62,0,0,1-1,.3,1.62,1.62,0,0,1-1-.3,1.85,1.85,0,0,0-1-.29,1.75,1.75,0,0,0-1,.29,1.41,1.41,0,0,1-.71.27m11.33-2.09a1.31,1.31,0,0,1-.62-.26,1.87,1.87,0,0,0-2,0,1.62,1.62,0,0,1-1,.3,1.62,1.62,0,0,1-1-.3,1.87,1.87,0,0,0-2,0,1.62,1.62,0,0,1-1,.3,1.62,1.62,0,0,1-1-.3,1.88,1.88,0,0,0-1-.29,1.85,1.85,0,0,0-1,.29,1.41,1.41,0,0,1-.71.27M.52,17a1.42,1.42,0,0,0,.71-.28,1.85,1.85,0,0,1,1-.29,1.88,1.88,0,0,1,1,.29,1.62,1.62,0,0,0,1,.3,1.62,1.62,0,0,0,1-.3,1.88,1.88,0,0,1,1-.29,1.85,1.85,0,0,1,1,.29,1.62,1.62,0,0,0,1,.3,1.62,1.62,0,0,0,1-.3,1.88,1.88,0,0,1,1-.29,1.85,1.85,0,0,1,1,.29,1.31,1.31,0,0,0,.62.26m0-6.24a1.31,1.31,0,0,1-.62-.26,1.85,1.85,0,0,0-1-.29,1.88,1.88,0,0,0-1,.29,1.62,1.62,0,0,1-1,.3,1.62,1.62,0,0,1-1-.3,1.85,1.85,0,0,0-1-.29,1.88,1.88,0,0,0-1,.29,1.62,1.62,0,0,1-1,.3,1.62,1.62,0,0,1-1-.3,1.88,1.88,0,0,0-1-.29,1.85,1.85,0,0,0-1,.29,1.41,1.41,0,0,1-.71.27" transform="translate(0 -0.01)" fill="none" stroke="#171714" stroke-miterlimit="11.47" stroke-width="0.22" />
		<path d="M12,28.62c6.4,0,11.59-4.9,11.59-10.94V.45H12Z" transform="translate(0 -0.01)" fill="#2673bd" />
	</g>
	<path d="M20.47,8.35l.67,1.8h1.78l-1.41,1,.54,1.73-1.58-1-1.57,1,.54-1.72-1.41-1H19.8ZM15,8.35l.67,1.8h1.78l-1.41,1,.54,1.73-1.58-1-1.57,1L14,11.11l-1.41-1h1.78Zm2.75,4.8.66,1.8h1.78l-1.41,1,.54,1.73-1.57-1-1.58,1,.55-1.73-1.41-1h1.77Z" transform="translate(0 -0.01)" fill="#fff" />
	<path d="M.23,17.67V.23H23.8V17.67c0,7.38-6.71,11.1-11.8,11.1C6.52,28.77.22,25.06.23,17.67Z" transform="translate(0 -0.01)" fill="none" stroke="#171714" stroke-miterlimit="3.86" stroke-width="0.45" />
</svg>
