<svg xmlns="http://www.w3.org/2000/svg" 
    xmlns:xlink="http://www.w3.org/1999/xlink" viewBox="0 0 24.03 29" preserveAspectRatio="xMinYMid">
    <defs>
        <style>.cls-1,.cls-4{fill:none;}.cls-2{clip-path:url(#clip-path);}.cls-3{fill:#fff;}.cls-4{stroke:#171714;stroke-miterlimit:3.86;stroke-width:0.45px;}.cls-5{fill:#c2172e;}</style>
        <clipPath id="clip-path" >
            <rect class="cls-1" width="24.03" height="29"/>
        </clipPath>
    </defs>
    <g>
        <g>
            <g class="cls-2">
                <path class="cls-3" d="M.23,17.67V.23H23.8V17.67c0,7.38-6.71,11.1-11.8,11.1C6.52,28.77.22,25.06.23,17.67" />
                <path class="cls-4" d="M.23,17.67V.23H23.8V17.67c0,7.38-6.71,11.1-11.8,11.1C6.52,28.77.22,25.06.23,17.67Z" />
            </g>
            <polygon class="cls-5" points="8.77 20.35 6.16 24.9 7.67 11.98 10.27 11.98 10.27 26.16 8.77 20.35"/>
            <polygon class="cls-5" points="11.77 20.35 14.37 24.9 12.87 11.98 10.27 11.98 10.27 26.16 11.77 20.35"/>
            <g class="cls-2">
                <path class="cls-5" d="M8.2,7.89a8.56,8.56,0,0,0-.23,2l4.55,0c0-1.7.11-4.71,3.25-4.72A2.14,2.14,0,0,1,18,7.06c0,1.33-1.17,1.78-2.58,1.71a2.78,2.78,0,0,0,2.4,1.28.8.8,0,0,0,1.6-.12.77.77,0,0,0-.14-.45,3.75,3.75,0,0,0,.89-1.3.79.79,0,0,0,.24,0,.8.8,0,0,0,.8-.8.85.85,0,0,0-.71-.84h0a4.18,4.18,0,0,0-.41-1.5.75.75,0,0,0,.47-.72.8.8,0,0,0-1.36-.57h0A5.59,5.59,0,0,0,17.65,2.7a.79.79,0,0,0,.08-.35.81.81,0,0,0-.8-.81.83.83,0,0,0-.8.66,5.57,5.57,0,0,0-.87-.05,6.55,6.55,0,0,0-1.07.1.77.77,0,0,0-.77-.62.8.8,0,0,0-.8.8,1,1,0,0,0,0,.23,7.24,7.24,0,0,0-1.68,1,.79.79,0,0,0-.62-.29A.79.79,0,0,0,9.8,4.7,7.22,7.22,0,0,0,8.72,6.39a.82.82,0,0,0-.36-.09A.8.8,0,0,0,8.2,7.89" />
                <path class="cls-5" d="M14.32,11V9.8H6.37V11c.32,0,7.95,0,7.95,0" />
            </g>
            <rect class="cls-5" x="6.37" y="10.97" width="7.95" height="1.16"/>
            <rect class="cls-5" x="5.36" y="10.49" width="9.92" height="0.98"/>
        </g>
    </g>
</svg>
