<svg xmlns="http://www.w3.org/2000/svg" 
    xmlns:xlink="http://www.w3.org/1999/xlink" viewBox="0 0 24.03 29" preserveAspectRatio="xMinYMid">
    <defs>
        <style>.cls-1,.cls-7{fill:none;}.cls-2{clip-path:url(#clip-path);}.cls-3{fill:#c2172e;}.cls-4{fill:#f2db38;}.cls-5{fill:#171714;}.cls-6{fill:#fff;}.cls-7{stroke:#171714;stroke-miterlimit:3.86;stroke-width:0.45px;}</style>
        <clipPath id="clip-path" >
            <rect class="cls-1" width="24.03" height="29"/>
        </clipPath>
    </defs>
    <g>
        <g>
            <g class="cls-2">
                <path class="cls-3" d="M12,28.62c6.39,0,11.58-4.89,11.58-10.93V.4H12.06V28.62Z" />
                <path class="cls-4" d="M12,28.49V.4H.46V18C.46,24,5.65,28.63,12,28.63Z" />
                <path class="cls-3" d="M4.18,21.23c0,.08.38.35,0,.47-.09.11-.45-.27-.45-.27-.29-.12-.46.19-.61.29a.79.79,0,0,1,.1-.27c.25-.53.8-.26.92-.21" />
                <path class="cls-3" d="M9.14,23.14c0,.23,0,.49-.23.64.06-.6-.31-.53-.52-.88a.2.2,0,0,1,0-.22,1.2,1.2,0,0,1,.73.46" />
                <path class="cls-3" d="M3.82,22.8c.39,0,0,.06.07.31-.49,0-.54.6-.59.77-.14-.31-.25-.47,0-.76s.24-.29.56-.32" />
                <path class="cls-3" d="M5,24.93c.06.08-.07.49.29.71a1,1,0,0,1-.61-.31s-.07-.38.18-.4c.09,0,.11,0,.14,0" />
                <path class="cls-3" d="M9.19,19.69c-.6,1-1.49,1.67-2.06,2.6,0,.11-.09.19,0,.22a2.7,2.7,0,0,1,1.46.07c.12.15,0,.34,0,.49-.28.54-.77,0-1.13,0L6.84,23s-.27.07-.24.07a3.09,3.09,0,0,0-1.34,1.82.66.66,0,0,1-.68.14c-.28-.67.38-1.07.59-1.36l.4-.4c-.26-.25-.46,0-.78,0a1.94,1.94,0,0,1-.62.15l-.23,0c-.1,0-.12-.14-.12-.14s-.26-.42-.08-.56c.64-.11,1,.33,1.41.1.06-.1-.17-.12-.17-.12a2.87,2.87,0,0,1-1-.91c0-.22.3-.32.44-.47l.26.05c.31.46.41.95,1.11,1,.26,0,.4-.11.59-.23l2.31-2.68c.15,0,.45,0,.47.26" />
                <path class="cls-3" d="M8.51,7.4a5.37,5.37,0,0,0-.88-.74c-.79-.36-1.8.13-2.52-.3A.66.66,0,0,1,5,5.71c-.21.05-.29.23-.4.37a.71.71,0,0,0,.13.71c.4.33,1,.11,1.51.09a4.34,4.34,0,0,1,1.2,0c.39.13,1.09.53,1.06.49" />
                <path class="cls-5" d="M12.11,7.13a4.88,4.88,0,0,0-.41-.43c.11-.12.3-.22.39-.39l0-.09c-.21.14-.44,0-.65-.13s-.11-.09-.1-.17c.18,0,.33-.29.44-.42a2.84,2.84,0,0,1-.34,0c-.61,0-.53-.74-.55-.77l-3.12,0-.3.64,2.79,3a5,5,0,0,1,.41,1,1.33,1.33,0,0,0-1.08,0l-.49.45c-1.22-.75-2.18,1-3.46.15-.21-.15-.12-.47-.11-.68S5.82,9,6,8.9c-.2-.56-.75-.94-1.07-1.47A54.6,54.6,0,0,1,1.47,1.85c-.23.12-.24.41-.36.63C.59,4,1.62,5.18,2.4,6.33a16.28,16.28,0,0,0,2,2c0,.09.11.17.11.26H4.28A14.92,14.92,0,0,1,1.1,6.74a1.71,1.71,0,0,0,.41,2,7.93,7.93,0,0,0,2.77.91l0,.06a9.48,9.48,0,0,1-3.31.13.92.92,0,0,0,.31,1c.93.68,2.28.2,3.16-.21h0l0,.14a12.42,12.42,0,0,1-3.33,1.69,1.31,1.31,0,0,0,.59.76c1.42.4,2.48-.85,3.31-1.81h.1a1.94,1.94,0,0,1-.37.89,35.34,35.34,0,0,1-3.24,4.32c.39.38,1,.25,1.48.13,1.78-.82,2.16-2.78,3-4.29l.26-.59.15,0,0,.36a72.42,72.42,0,0,1-2.72,8,2.35,2.35,0,0,0,.91-.16c2-.67,2-2.88,2.45-4.53.21-1.19.38-2.4.57-3.59a.2.2,0,0,1,.18,0,39.23,39.23,0,0,1-.16,5.27l-.09,1.13a2.94,2.94,0,0,0,1.74-2.14A31.07,31.07,0,0,0,9,11.68c0-.1.1-.17.17-.21h.1c.4,1.13.72,2.27,1.06,3.43-.7,1.73-1.71,3.34-2.46,5.06l1.21-.27a21.39,21.39,0,0,0,.77,2.24l0,0c.41-1.41.74-2.88,1.13-4.29l.07,0c.59,1.86,1.28,4.19.26,6.07a3.34,3.34,0,0,1-2.48,2.18c-.16-.07-.41,0-.46-.24-.1-.44.46-.69.38-1.15a.94.94,0,0,0-.49-.62,1.36,1.36,0,0,0-1.38.3c-.1.11-.31.24-.26.43.21.09.41-.13.62-.18s.29,0,.34.18c0,.49-.65.73-.85,1.15a1.12,1.12,0,0,0,0,1.08,2.14,2.14,0,0,0,1.89.35,5.82,5.82,0,0,0,3.06-2.64c.11,0,.11.13.14.21-.08,1-.9,1.64-1.39,2.39-.12.28.18.51.4.64a2.18,2.18,0,0,1,1.16.84Z" />
                <path class="cls-3" d="M9.17,2.06a.55.55,0,0,0,.57-.53.57.57,0,0,0-1.13,0,.55.55,0,0,0,.56.53" />
                <path class="cls-3" d="M7,3.64a.26.26,0,0,0,.26-.25A.25.25,0,0,0,7,3.15a.25.25,0,0,0-.26.24A.25.25,0,0,0,7,3.64" />
                <path class="cls-3" d="M7.27,3.21a.25.25,0,1,0,0-.49.25.25,0,1,0,0,.49" />
                <path class="cls-3" d="M7.66,2.87a.25.25,0,1,0-.27-.25.25.25,0,0,0,.27.25" />
                <path class="cls-3" d="M8.15,2.64a.25.25,0,1,0,0-.49.25.25,0,1,0,0,.49" />
                <path class="cls-3" d="M9.18,2.49a.25.25,0,0,0,.26-.25.26.26,0,1,0-.26.25" />
                <path class="cls-3" d="M9.71,2.54A.25.25,0,0,0,10,2.29a.26.26,0,0,0-.53,0,.26.26,0,0,0,.27.25" />
                <path class="cls-3" d="M8.66,2.52a.26.26,0,0,0,.26-.24A.26.26,0,0,0,8.66,2a.25.25,0,0,0-.26.25.25.25,0,0,0,.26.24" />
                <path class="cls-3" d="M10.22,2.66A.25.25,0,1,0,10,2.42a.25.25,0,0,0,.26.25" />
                <path class="cls-3" d="M10.68,2.89a.25.25,0,1,0,0-.49.25.25,0,1,0,0,.49" />
                <path class="cls-3" d="M11.06,3.23A.25.25,0,0,0,11.32,3a.26.26,0,1,0-.26.24" />
                <path class="cls-3" d="M11.27,3.67a.25.25,0,0,0,.26-.24.25.25,0,0,0-.26-.25.26.26,0,0,0-.27.25.26.26,0,0,0,.27.24" />
                <path class="cls-3" d="M9.16,2.48c1,0,1.89.51,1.89,1.13a.5.5,0,0,1,0,.07l0,.12a.21.21,0,0,1-.21.16.21.21,0,0,1-.22-.2.25.25,0,0,1,0-.11l0-.1c-.07-.4-.71-.66-1.5-.66s-1.42.26-1.5.66v.1a.2.2,0,0,1,0,.11.21.21,0,0,1-.42,0l0-.12s0,0,0-.07c0-.63.85-1.13,1.89-1.13h0Z" />
                <path class="cls-3" d="M10.85,4.37a.23.23,0,0,0,.25-.2A.23.23,0,0,0,10.85,4H7.56a.23.23,0,0,0-.25.21.23.23,0,0,0,.25.2Z" />
                <path class="cls-3" d="M10.69,4.77a.21.21,0,1,0,0-.41h-3a.21.21,0,1,0,0,.41Z" />
                <path class="cls-3" d="M9.16,2.49a.26.26,0,0,0-.24.25A.25.25,0,0,0,9.18,3a.25.25,0,1,0,0-.49Z" />
                <path class="cls-3" d="M9.19,3.47a.25.25,0,1,0-.26-.25.26.26,0,0,0,.26.25" />
                <path class="cls-3" d="M9.17,4a.26.26,0,0,0,.26-.25.25.25,0,0,0-.26-.24.25.25,0,0,0-.26.24A.25.25,0,0,0,9.17,4" />
                <path class="cls-3" d="M7.83,6.53a3.93,3.93,0,0,0-1.74-.4c-.23,0-.25.19-.36.32a.59.59,0,0,1-.28-.59.62.62,0,0,1,.38-.49c.32-.24.76.21,1-.11.09-.35.62-.14.6-.13l.15.13.66.66A17.2,17.2,0,0,1,9.82,7.8l.19.28.2.35a7.11,7.11,0,0,0-3.62-1c.08-.19.36-.25.46-.35L7.6,7l1.1.37Z" />
                <path class="cls-6" d="M9.11,5.7c.18,0,.33-.09.33-.2s-.14-.21-.33-.21-.33.09-.33.21.15.2.33.2" />
                <path class="cls-5" d="M9,5.6a.15.15,0,0,0,.16-.14A.15.15,0,0,0,9,5.31a.15.15,0,0,0-.16.15A.16.16,0,0,0,9,5.6" />
                <path class="cls-6" d="M8.52,5l-.1.15c-.09.24.69-.18,1.27,0-.72-.08-1.31.37-1.43.11s.14-.23.25-.25" />
                <path class="cls-7" d="M.23,17.67V.23H23.81V17.67c0,7.38-6.71,11.1-11.8,11.1C6.52,28.77.22,25.06.23,17.67Z" />
                <path class="cls-4" d="M15.51,25.23a.4.4,0,1,0,0,.81h1.81a.4.4,0,0,0,0-.81Z" />
            </g>
            <polygon class="cls-4" points="17.02 9.32 17.86 9.32 17.86 11.94 19.62 11.94 19.62 10.9 21 10.9 21 11.94 22.74 11.94 22.74 10.43 21.66 10.43 21.66 9.32 22.74 9.32 22.74 8.79 22.74 5.54 22.74 5.01 21.66 5.01 21.66 3.9 22.74 3.9 22.74 2.39 21 2.39 21 3.43 19.62 3.43 19.62 2.39 17.86 2.39 17.86 5.01 16.99 5.01 17.02 9.32"/>
            <polygon class="cls-3" points="21.34 7.63 20.27 7.63 20.27 9.2 19.31 9.2 19.31 7.63 18.24 7.63 18.24 6.7 19.31 6.7 19.31 5.13 20.27 5.13 20.27 6.7 21.34 6.7 21.34 7.63"/>
            <g class="cls-2">
                <path class="cls-4" d="M15.62,18V2.36a.69.69,0,0,1,.25-.55.56.56,0,0,1,.56-.57.56.56,0,0,1,.57.57.7.7,0,0,1,.23.55V18Z" />
                <path class="cls-4" d="M19.16,22.41a3.28,3.28,0,0,0-2.06,3.44H15.73a3.29,3.29,0,0,0-2.06-3.44V20.88a3.29,3.29,0,0,0,2.06-3.44H17.1a3.29,3.29,0,0,0,2.06,3.44Z" />
                <path class="cls-3" d="M17,21a.6.6,0,0,1,0,1.21.6.6,0,0,1-1.21,0,.6.6,0,0,1,0-1.21A.6.6,0,1,1,17,21" />
                <path class="cls-4" d="M17.33,16.78a.4.4,0,1,0,0-.81H15.52a.4.4,0,0,0,0,.81Z" />
                <path class="cls-4" d="M13.13,22.22a.58.58,0,1,0-.58-.58.58.58,0,0,0,.58.58" />
                <path class="cls-4" d="M19.7,22.22a.58.58,0,1,1,.58-.58.58.58,0,0,1-.58.58" />
                <path class="cls-4" d="M15.45,17.67a.4.4,0,1,1,0-.81h1.81a.4.4,0,0,1,0,.81Z" />
                <path class="cls-4" d="M15.83,26a.58.58,0,1,1,.58.59.58.58,0,0,1-.58-.59" />
                <path class="cls-4" d="M13.93,20.74a.4.4,0,1,0-.81,0v1.81a.4.4,0,0,0,.81,0Z" />
                <path class="cls-4" d="M18.89,20.74a.4.4,0,1,1,.81,0v1.81a.41.41,0,0,1-.81,0Z" />
            </g>
        </g>
    </g>
</svg>
