<svg xmlns="http://www.w3.org/2000/svg" 
    xmlns:xlink="http://www.w3.org/1999/xlink" viewBox="0 0 24.03 29" preserveAspectRatio="xMinYMid">
    <defs>
        <style>.cls-1,.cls-4,.cls-6{fill:none;}.cls-2{clip-path:url(#clip-path);}.cls-3{fill:#c2172e;}.cls-4{stroke:#171714;stroke-miterlimit:3.86;stroke-width:0.45px;}.cls-5{fill:#fff;}.cls-6{stroke:#fff;stroke-miterlimit:11.47;stroke-width:0.08px;}</style>
        <clipPath id="clip-path" >
            <rect class="cls-1" width="24.03" height="29"/>
        </clipPath>
    </defs>
    <g>
        <g>
            <g class="cls-2">
                <path class="cls-3" d="M.23,17.67V.23H23.8V17.67c0,7.38-6.71,11.1-11.8,11.1C6.52,28.77.22,25.06.23,17.67" />
                <path class="cls-4" d="M.23,17.67V.23H23.8V17.67c0,7.38-6.71,11.1-11.8,11.1C6.52,28.77.22,25.06.23,17.67Z" />
            </g>
            <polygon class="cls-5" points="18.73 1.76 17.62 1.76 17.62 5.14 14.24 5.14 14.24 6.25 17.63 6.25 17.63 9.63 18.75 9.63 18.74 6.25 22.12 6.25 22.12 5.14 18.73 5.14 18.73 1.76"/>
            <polygon class="cls-6" points="18.73 1.76 17.62 1.76 17.62 5.14 14.24 5.14 14.24 6.25 17.63 6.25 17.63 9.63 18.75 9.63 18.74 6.25 22.12 6.25 22.12 5.14 18.73 5.14 18.73 1.76"/>
        </g>
    </g>
</svg>
