<svg xmlns="http://www.w3.org/2000/svg" 
    xmlns:xlink="http://www.w3.org/1999/xlink" viewBox="0 0 24.03 29" preserveAspectRatio="xMinYMid">
    <defs>
        <style>.cls-1,.cls-10,.cls-6{fill:none;}.cls-2{clip-path:url(#clip-path);}.cls-3{fill:#fff;}.cls-4{fill:#69a33d;}.cls-5{fill:#faf214;}.cls-10,.cls-6{stroke:#171714;}.cls-6{stroke-miterlimit:11.47;stroke-width:0.08px;}.cls-7{fill:#f2db38;}.cls-8{fill:#c21a24;}.cls-9{fill:#171714;}.cls-10{stroke-miterlimit:3.86;stroke-width:0.45px;}</style>
        <clipPath id="clip-path">
            <rect class="cls-1" width="24.03" height="29"/>
        </clipPath>
    </defs>
    <g>
        <g>
            <g class="cls-2">
                <path class="cls-3" d="M23.51.41H.33V17.63c0,6,5.19,10.95,11.59,10.95s11.59-4.9,11.59-10.95Z"/>
                <path class="cls-4" d="M22.12,23,.46.48V18c0,6,5.19,10.6,11.59,10.6A12,12,0,0,0,22.2,23c1-1.6-.08,0-.08,0"/>
                <path class="cls-5" d="M6,14.2H6c.33,0,.41.23.73.26.07-.07-.61-.35-.61-.42a1.32,1.32,0,0,1,.56,0Z"/>
                <path class="cls-6" d="M6,14.19H6c.34,0,.43.27.76.31.07-.08-.64-.41-.64-.49a1.25,1.25,0,0,1,.59,0"/>
                <path class="cls-7" d="M6.7,14a5.28,5.28,0,0,1,.8.34l.13.09s-.08-.2-.11-.2.13-.47.25-.49c.26.2.3.6.61.54.16-.26.84-.75.61-1.19a3.22,3.22,0,0,0-.4-.33s-.19.19-.25.28.12-.32.11-.34a.65.65,0,0,1-.08-.46c.09-.21.41-.18.52-.42.33.1.44.58.83.32a5.59,5.59,0,0,1,1.53,1.48c-.09.09-.32-.09-.38,0s.75.26.85.41l.06.1a.45.45,0,0,1-.17.69l-.43.19c.13.6-.63,1.27-.9,1.71a3.77,3.77,0,0,1,0-.53c0-.15-.29.71-.53.84.73.52,2.83,1.55,3.27,2.34,1.64.28,2.88,1.67,4.41,2.32.39-.11.05-.55,0-.86A10.49,10.49,0,0,0,14.35,19c-1.19-.37-1.6-1.41-2.1-2.42a.85.85,0,0,0-.67-.46,1.54,1.54,0,0,1,1.18.07c.36.3.32.18.1,0a1.19,1.19,0,0,1,.95.28,3,3,0,0,1,.61,1.82c1,.54,1,.78,1.73,1A5.43,5.43,0,0,1,18.25,21a1.61,1.61,0,0,1-.16,1.11.82.82,0,0,1-.8.17,12.7,12.7,0,0,1-3.05-1.83l.33.41a3.68,3.68,0,0,0,1.35,1.51c.15.34.68.45,1,.51C16.84,24,16,24.66,15.4,25.61c0,.07-1.13.47-1.09.72-.32.18-.76-.26-1,.28-.1-.57-.15-.65.44-.89-.22.08.14,0,0,0s-.41.35-.62.18-.32,0-.67.16c0-.19.25-.77.45-.71l.55-.17c-.3-.11-.11,0-.25-.07l-.45.25c.06-.21-.38-.4-.65-.36.21-.31.39-.62.72-.56l.12,0a.31.31,0,0,0,.33-.41l-.55-.15a1.32,1.32,0,0,1,.89,0c.18.16.11.45.26.63,0,0,.1.23.11.24,0,.36,1,.05.84-1.18-.72-.83-1.78-.44-2.45-1.68-.22,0-.86.27-.9.5s-.3.38-.26.93c-.15.26.72.81.32.87a4.84,4.84,0,0,1-5.08-.23c-.3,0-.51,0-.66-.31s-.21-.3-.31-.3.53,0,.53,0c-.34-.11-.21-.38-.36-.68a.71.71,0,0,0-.43,0c.14-.21.26-.18.36-.29.37-.12.83.23.76-.41L6,21.74c.28-.17.36-.18.65,0,.09.08.3.28.47.23.33,0,.09-.38.05-.54.29,0,.35,0,.51.32.31.54-.37.77-.13,1.12l0,.08a2.33,2.33,0,0,0,1.85.31c.47-.8-.78-1.24-.06-2.12.3-.6,1.27-.79,1.88-.91l.12,0c-1.71-.7-4.46-.46-5.9-1.31a10.24,10.24,0,0,1-1.32-1.33c-.08,0,.22,0,.11,0a.93.93,0,0,0-.37,0l-.46,0c-.76-1.23-.71-3.4-1.05-4.85C1.78,12.64,2,11,1.76,10.56c.38-.55,0-1,.15-1-.12-.07.7.51.63.3a.67.67,0,0,0,.08-.81s.08,0,0,0,.39.53.47.76.11.33,0-.06c.15-.15.4,0,.38-.29,0,0,.08-.23-.06-.32s.38.45.48.9a1.27,1.27,0,0,0,0,.34c.17,0,.25.3.41.12l.13-.32a1,1,0,0,1-.06.67c-.14.37-.12.34-.47.36-.11,0-.31.12-.44.1l-.06.13a6.34,6.34,0,0,0,1.2,3.16v0a16.52,16.52,0,0,1,.31-2.85,1.49,1.49,0,0,1,0-1.3c-.26-.2,0-.78.09-1.06,0-.12,0-.13-.14-.2H4.67c.16-.19.25-.11.51,0s.26-.31.47-.3a.92.92,0,0,0-.15-.43c.17.08.25,0,.43.21s.41.53.62.16c0,0-.07,0-.1-.25A5.3,5.3,0,0,1,6.78,9c.1.1-.15,1.12.45.91l.12-.34c.14.21.22.38.11.55.15.56-.71.76-1.17,1a6.51,6.51,0,0,0,.32,2.7Z"/>
                <path class="cls-6" d="M6.7,14a5.28,5.28,0,0,1,.8.34l.13.09s-.08-.2-.11-.2.13-.47.25-.49c.26.2.3.6.61.54.16-.26.84-.75.61-1.19a3.22,3.22,0,0,0-.4-.33s-.19.19-.25.28.12-.32.11-.34a.65.65,0,0,1-.08-.46c.09-.21.41-.18.52-.42.33.1.44.58.83.32a5.59,5.59,0,0,1,1.53,1.48c-.09.09-.32-.09-.38,0s.75.26.85.41l.06.1a.45.45,0,0,1-.17.69l-.43.19c.13.6-.63,1.27-.9,1.71a3.77,3.77,0,0,1,0-.53c0-.15-.29.71-.53.84.73.52,2.83,1.55,3.27,2.34,1.64.28,2.88,1.67,4.41,2.32.39-.11.05-.55,0-.86A10.49,10.49,0,0,0,14.35,19c-1.19-.37-1.6-1.41-2.1-2.42a.85.85,0,0,0-.67-.46,1.54,1.54,0,0,1,1.18.07c.36.3.32.18.1,0a1.19,1.19,0,0,1,.95.28,3,3,0,0,1,.61,1.82c1,.54,1,.78,1.73,1A5.43,5.43,0,0,1,18.25,21a1.61,1.61,0,0,1-.16,1.11.82.82,0,0,1-.8.17,12.7,12.7,0,0,1-3.05-1.83l.33.41a3.68,3.68,0,0,0,1.35,1.51c.15.34.68.45,1,.51C16.84,24,16,24.66,15.4,25.61c0,.07-1.13.47-1.09.72-.32.18-.76-.26-1,.28-.1-.57-.15-.65.44-.89-.22.08.14,0,0,0s-.41.35-.62.18-.32,0-.67.16c0-.19.25-.77.45-.71l.55-.17c-.3-.11-.11,0-.25-.07l-.45.25c.06-.21-.38-.4-.65-.36.21-.31.39-.62.72-.56l.12,0a.31.31,0,0,0,.33-.41l-.55-.15a1.32,1.32,0,0,1,.89,0c.18.16.11.45.26.63,0,0,.1.23.11.24,0,.36,1,.05.84-1.18-.72-.83-1.78-.44-2.45-1.68-.22,0-.86.27-.9.5s-.3.38-.26.93c-.15.26.72.81.32.87a4.84,4.84,0,0,1-5.08-.23c-.3,0-.51,0-.66-.31s-.21-.3-.31-.3.53,0,.53,0c-.34-.11-.21-.38-.36-.68a.71.71,0,0,0-.43,0c.14-.21.26-.18.36-.29.37-.12.83.23.76-.41L6,21.74c.28-.17.36-.18.65,0,.09.08.3.28.47.23.33,0,.09-.38.05-.54.29,0,.35,0,.51.32.31.54-.37.77-.13,1.12l0,.08a2.33,2.33,0,0,0,1.85.31c.47-.8-.78-1.24-.06-2.12.3-.6,1.27-.79,1.88-.91l.12,0c-1.71-.7-4.46-.46-5.9-1.31a10.24,10.24,0,0,1-1.32-1.33c-.08,0,.22,0,.11,0a.93.93,0,0,0-.37,0l-.46,0c-.76-1.23-.71-3.4-1.05-4.85C1.78,12.64,2,11,1.76,10.56c.38-.55,0-1,.15-1-.12-.07.7.51.63.3a.67.67,0,0,0,.08-.81s.08,0,0,0,.39.53.47.76.11.33,0-.06c.15-.15.4,0,.38-.29,0,0,.08-.23-.06-.32s.38.45.48.9a1.27,1.27,0,0,0,0,.34c.17,0,.25.3.41.12l.13-.32a1,1,0,0,1-.06.67c-.14.37-.12.34-.47.36-.11,0-.31.12-.44.1l-.06.13a6.34,6.34,0,0,0,1.2,3.16v0a16.52,16.52,0,0,1,.31-2.85,1.49,1.49,0,0,1,0-1.3c-.26-.2,0-.78.09-1.06,0-.12,0-.13-.14-.2H4.67c.16-.19.25-.11.51,0s.26-.31.47-.3a.92.92,0,0,0-.15-.43c.17.08.25,0,.43.21s.41.53.62.16c0,0-.07,0-.1-.25A5.3,5.3,0,0,1,6.78,9c.1.1-.15,1.12.45.91l.12-.34c.14.21.22.38.11.55.15.56-.71.76-1.17,1a6.51,6.51,0,0,0,.32,2.7Z"/>
                <path class="cls-8" d="M8.59,14.16c-.92-1.48-1.3-1.52-.78-2.47a.63.63,0,0,0-.7.22c-.23.83,1,2.45,1.15,2.48s.33-.24.33-.24"/>
                <path class="cls-6" d="M8.59,14.16c-.92-1.48-1.3-1.52-.78-2.47a.63.63,0,0,0-.7.22c-.23.83,1,2.45,1.15,2.48S8.59,14.16,8.59,14.16Z"/>
                <path class="cls-9" d="M10.39,13.56a1.06,1.06,0,0,1-.68-.27c-.15-.21.27-.39,0-.59a1,1,0,0,1,.72.86"/>
                <path class="cls-8" d="M12.06,21.12a4.79,4.79,0,0,1-1.12-.42c.15-.07.85-.23,1,0Z"/>
                <path class="cls-6" d="M12.42,21.83a10.73,10.73,0,0,0-1-1.94c-.18-.18.25.44.25.44.07.18-.33-.11-.33-.11"/>
                <path class="cls-7" d="M16.89,7.81A10.64,10.64,0,0,1,20,11.17c.84.43.88,1.88,2,1.83.4-.13.16-.52.11-.83-.73-1.75-2-3.25-2.52-5.21-.27-1.21.54-2.14,1.17-3,.24-.42.07-.56-.2-1A1.58,1.58,0,0,1,21.48,4c-.08.45.06.19.08-.07A1.29,1.29,0,0,1,22,5a2.36,2.36,0,0,1-1.64,1.63c-.26.84.15,1.32.45,2a22.14,22.14,0,0,1,1.87,3.68,1.63,1.63,0,0,1-.16,1.12.85.85,0,0,1-.8.2,1.82,1.82,0,0,1-1-.9c-.07-.09.13.29.13.29.35.75.08.92.41,1.72a1.06,1.06,0,0,0,.86.51,7.11,7.11,0,0,1-.6,3.32c-.15.46-.92.27-.83.86-.32.2-.76-.22-1,.33-.1-.57,0-.55-.2-.72s-.36-.57-.71-.42a1.85,1.85,0,0,1,.2-.45c.07-.22-.39-.38-.65-.32a.84.84,0,0,1,.89-.32v-.05c-.06-.19.19-.53,0-.69l-.3,0c.24-.19.84.05,1,.12s.16.54.32.7l0,0a1.34,1.34,0,0,0,.24-1.53c-.73-.91-2.26-1.31-2.06-2.74a1.05,1.05,0,0,0-.78.45,2.87,2.87,0,0,0-.2,1.08,3.75,3.75,0,0,1-1.34-.2c-1-.47-2.1-.61-2.82-1.66-.29-.06-.49-.11-.59-.39a.29.29,0,0,0-.25-.34c-.1,0,.53,0,.53,0-.31-.15-.14-.41-.22-.72a.66.66,0,0,0-.43-.06c.18-.18.29-.15.41-.24.38-.06.77.34.82-.3l-.31-.21c.31-.13.46,0,.7.29.07.09.24.32.41.29.33,0,.16-.36.16-.53.29,0,.33.09.44.4.21.57-.52.75-.35,1.13l0,.08A1.27,1.27,0,0,0,16,13c.27-.24.12-.74.3-1.06.29-.6.91-.5,1.43-.46l.31.25c-1.48-1.44-3.48-1.29-5.37-1.65a2,2,0,0,1-.7-.4,2.08,2.08,0,0,1,.49-.06,1,1,0,0,0-.38,0l-.46,0a13.72,13.72,0,0,1-3.7-3.1c-.59-.1-.91-.78-1.37-1C6.62,5,5.83,5,6,5c-.15,0,.9-.18.74-.31,0-.24,0-.62-.37-.71,0,0,.08,0,0,0s.67-.19.87-.06.27.21,0-.07c.05-.2.34-.23.17-.46,0,0-.05-.23-.22-.22s.57.15.88.45c.07.09.1.2.2.27.16-.08.58,0,.62-.27l-.05-.33a.89.89,0,0,1,.3.58c.09.38-.13.46-.41.68-.09.07-.2.28-.33.34V5c.25.92,1.57,1.19,2.77,1.71v0a13.35,13.35,0,0,0-.7-2.29,4.14,4.14,0,0,1,.07-2.16c0-.12,0-.13-.14-.2h-.16c.16-.19.25-.12.51,0s.39-.19.61-.2a1,1,0,0,0-.16-.43c.18.07.25,0,.43.19s.53.52.76.12c0,0,.09,0,.06-.24a3.61,3.61,0,0,1,.26.39c.1.1-.38,1.16.23.92l.28-.24A.68.68,0,0,1,13,3c-.22.49-.73.35-1.18.45-.24.65.38,1.48.77,1.94l.05,0a2.81,2.81,0,0,1,1-.11c.07-.07-.24-.15-.24-.22a3.48,3.48,0,0,1,1.29.14l.14.08s-.08-.19-.1-.2.13-.48.25-.51c.27.19.5.5.81.42.27-.46.69-.7.39-1.27a4,4,0,0,0-.4-.31s-.14.16-.2.26.07-.29.05-.31a.65.65,0,0,1-.08-.46c.09-.22.54-.21.65-.45.33.09.57.71,1,.43a5,5,0,0,1,1.54,1.39c-.09.1-.32-.07-.38,0s.7.37.81.51h0c.1.15.49.43-.2.81l-.54.07c.14.59-.66,1.42-.93,1.89a3.72,3.72,0,0,1,0-.53c0-.15-.25.67-.5.81"/>
                <path class="cls-6" d="M16.89,7.81A10.64,10.64,0,0,1,20,11.17c.84.43.88,1.88,2,1.83.4-.13.16-.52.11-.83-.73-1.75-2-3.25-2.52-5.21-.27-1.21.54-2.14,1.17-3,.24-.42.07-.56-.2-1A1.58,1.58,0,0,1,21.48,4c-.08.45.06.19.08-.07A1.29,1.29,0,0,1,22,5a2.36,2.36,0,0,1-1.64,1.63c-.26.84.15,1.32.45,2a22.14,22.14,0,0,1,1.87,3.68,1.63,1.63,0,0,1-.16,1.12.85.85,0,0,1-.8.2,1.82,1.82,0,0,1-1-.9c-.07-.09.13.29.13.29.35.75.08.92.41,1.72a1.06,1.06,0,0,0,.86.51,7.11,7.11,0,0,1-.6,3.32c-.15.46-.92.27-.83.86-.32.2-.76-.22-1,.33-.1-.57,0-.55-.2-.72s-.36-.57-.71-.42a1.85,1.85,0,0,1,.2-.45c.07-.22-.39-.38-.65-.32a.84.84,0,0,1,.89-.32v-.05c-.06-.19.19-.53,0-.69l-.3,0c.24-.19.84.05,1,.12s.16.54.32.7l0,0a1.34,1.34,0,0,0,.24-1.53c-.73-.91-2.26-1.31-2.06-2.74a1.05,1.05,0,0,0-.78.45,2.87,2.87,0,0,0-.2,1.08,3.75,3.75,0,0,1-1.34-.2c-1-.47-2.1-.61-2.82-1.66-.29-.06-.49-.11-.59-.39a.29.29,0,0,0-.25-.34c-.1,0,.53,0,.53,0-.31-.15-.14-.41-.22-.72a.66.66,0,0,0-.43-.06c.18-.18.29-.15.41-.24.38-.06.77.34.82-.3l-.31-.21c.31-.13.46,0,.7.29.07.09.24.32.41.29.33,0,.16-.36.16-.53.29,0,.33.09.44.4.21.57-.52.75-.35,1.13l0,.08A1.27,1.27,0,0,0,16,13c.27-.24.12-.74.3-1.06.29-.6.91-.5,1.43-.46l.31.25c-1.48-1.44-3.48-1.29-5.37-1.65a2,2,0,0,1-.7-.4,2.08,2.08,0,0,1,.49-.06,1,1,0,0,0-.38,0l-.46,0a13.72,13.72,0,0,1-3.7-3.1c-.59-.1-.91-.78-1.37-1C6.62,5,5.83,5,6,5c-.15,0,.9-.18.74-.31,0-.24,0-.62-.37-.71,0,0,.08,0,0,0s.67-.19.87-.06.27.21,0-.07c.05-.2.34-.23.17-.46,0,0-.05-.23-.22-.22s.57.15.88.45c.07.09.1.2.2.27.16-.08.58,0,.62-.27l-.05-.33a.89.89,0,0,1,.3.58c.09.38-.13.46-.41.68-.09.07-.2.28-.33.34V5c.25.92,1.57,1.19,2.77,1.71v0a13.35,13.35,0,0,0-.7-2.29,4.14,4.14,0,0,1,.07-2.16c0-.12,0-.13-.14-.2h-.16c.16-.19.25-.12.51,0s.39-.19.61-.2a1,1,0,0,0-.16-.43c.18.07.25,0,.43.19s.53.52.76.12c0,0,.09,0,.06-.24a3.61,3.61,0,0,1,.26.39c.1.1-.38,1.16.23.92l.28-.24A.68.68,0,0,1,13,3c-.22.49-.73.35-1.18.45-.24.65.38,1.48.77,1.94l.05,0a2.81,2.81,0,0,1,1-.11c.07-.07-.24-.15-.24-.22a3.48,3.48,0,0,1,1.29.14l.14.08s-.08-.19-.1-.2.13-.48.25-.51c.27.19.5.5.81.42.27-.46.69-.7.39-1.27a4,4,0,0,0-.4-.31s-.14.16-.2.26.07-.29.05-.31a.65.65,0,0,1-.08-.46c.09-.22.54-.21.65-.45.33.09.57.71,1,.43a5,5,0,0,1,1.54,1.39c-.09.1-.32-.07-.38,0s.7.37.81.51h0c.1.15.49.43-.2.81l-.54.07c.14.59-.66,1.42-.93,1.89a3.72,3.72,0,0,1,0-.53C17.42,6.86,17.14,7.67,16.89,7.81Z"/>
                <path class="cls-8" d="M15.82,5c-.39-.72-1.58-1.5-1.34-2.44a.58.58,0,0,0-.4.14c-.28,1,1.08,2.32,1.4,2.4s.34-.1.34-.1"/>
                <path class="cls-6" d="M15.82,5c-.39-.72-1.58-1.5-1.34-2.44a.58.58,0,0,0-.4.14c-.28,1,1.08,2.32,1.4,2.4S15.82,5,15.82,5Z"/>
                <path class="cls-9" d="M17.62,4.2A1.05,1.05,0,0,1,16.93,4c-.15-.21.27-.41,0-.59a1,1,0,0,1,.73.83"/>
                <path class="cls-8" d="M18.33,12.53a5.63,5.63,0,0,1-1.11-.66c.17,0,1.07,0,1.09.24Z"/>
                <path class="cls-6" d="M18.48,13.28a8.67,8.67,0,0,0-.26-1.91c-.12-.21.11.48.11.48,0,.19-.31-.18-.31-.18"/>
                <path class="cls-10" d="M.23,17.67V.22H23.81V17.67c0,7.38-6.71,11.1-11.8,11.1C6.52,28.77.22,25.05.23,17.67Z"/>
            </g>
        </g>
    </g>
</svg>
