<svg xmlns="http://www.w3.org/2000/svg" 
    xmlns:xlink="http://www.w3.org/1999/xlink" viewBox="0 0 24.03 29" preserveAspectRatio="xMinYMid">
    <defs>
        <style>.cls-1,.cls-5{fill:none;}.cls-2{clip-path:url(#clip-path);}.cls-3{fill:#c2172e;}.cls-4{fill:#fff;}.cls-5{stroke:#171714;stroke-miterlimit:3.86;stroke-width:0.45px;}</style>
        <clipPath id="clip-path" >
            <rect class="cls-1" width="24.03" height="29"/>
        </clipPath>
    </defs>
    <g>
        <g>
            <g class="cls-2">
                <path class="cls-3" d="M12,28.6c6.4,0,11.74-4.89,11.74-10.94V.44H12V28.6Z" />
                <path class="cls-4" d="M12,28.47V.44L.36.46v17.2c0,6,5.19,10.94,11.59,10.94Z" />
            </g>
            <polygon class="cls-4" points="11.97 21.62 11.97 21.63 12.8 23.88 15.01 23.88 13.25 25.07 13.92 27.22 11.97 25.96 11.97 25.95 11.97 21.62"/>
            <polygon class="cls-3" points="11.96 21.62 11.96 21.63 11.13 23.88 8.92 23.88 10.68 25.07 10 27.22 11.96 25.96 11.96 25.95 11.96 21.62"/>
            <polygon class="cls-4" points="11.97 16.52 11.97 16.52 12.8 18.77 15.01 18.77 13.25 19.96 13.92 22.12 11.97 20.85 11.97 20.85 11.97 16.52"/>
            <polygon class="cls-3" points="11.96 16.52 11.96 16.52 11.13 18.77 8.92 18.77 10.68 19.96 10 22.12 11.96 20.85 11.96 20.85 11.96 16.52"/>
            <polygon class="cls-4" points="11.97 11.41 11.97 11.41 12.8 13.66 15.01 13.66 13.25 14.85 13.92 17 11.97 15.74 11.97 15.73 11.97 11.41"/>
            <polygon class="cls-3" points="11.96 11.41 11.96 11.41 11.13 13.66 8.92 13.66 10.68 14.85 10 17 11.96 15.74 11.96 15.73 11.96 11.41"/>
            <polygon class="cls-4" points="11.97 1.2 11.97 1.21 12.8 3.46 15.01 3.46 13.25 4.65 13.92 6.8 11.97 5.54 11.97 5.54 11.97 1.2"/>
            <polygon class="cls-3" points="11.96 1.2 11.96 1.21 11.13 3.46 8.92 3.46 10.68 4.65 10 6.8 11.96 5.54 11.96 5.54 11.96 1.2"/>
            <polygon class="cls-3" points="11.96 6.3 11.96 6.31 11.13 8.56 8.92 8.56 10.68 9.75 10 11.9 11.96 10.64 11.96 10.63 11.96 6.3"/>
            <polygon class="cls-4" points="11.97 6.3 11.97 6.31 12.8 8.56 15.01 8.56 13.25 9.75 13.92 11.9 11.97 10.64 11.97 10.63 11.97 6.3"/>
            <polygon class="cls-4" points="18.47 22.64 16.52 23.9 17.19 21.75 15.43 20.56 17.64 20.56 18.47 18.3 18.48 18.31 19.31 20.56 21.52 20.56 19.77 21.75 20.44 23.9 18.48 22.64 18.47 22.64"/>
            <polygon class="cls-4" points="18.47 17.57 16.52 18.83 17.19 16.68 15.43 15.48 17.64 15.48 18.47 13.24 18.48 13.24 19.31 15.49 21.52 15.49 19.77 16.68 20.44 18.84 18.48 17.57 18.47 17.57"/>
            <polygon class="cls-4" points="18.47 12.42 16.52 13.68 17.19 11.53 15.43 10.34 17.64 10.34 18.47 8.09 18.48 8.1 19.31 10.35 21.52 10.35 19.77 11.54 20.44 13.69 18.48 12.43 18.47 12.42"/>
            <polygon class="cls-4" points="18.47 7.33 16.52 8.59 17.19 6.43 15.43 5.25 17.64 5.25 18.47 3 18.48 3 19.31 5.25 21.52 5.26 19.77 6.45 20.44 8.6 18.48 7.34 18.47 7.33"/>
            <polygon class="cls-3" points="5.44 22.64 7.41 23.9 6.73 21.75 8.48 20.56 6.27 20.56 5.44 18.3 5.44 18.31 4.61 20.56 2.4 20.56 4.15 21.75 3.48 23.9 5.44 22.64 5.44 22.64"/>
            <polygon class="cls-3" points="5.44 17.57 7.41 18.83 6.73 16.68 8.48 15.48 6.27 15.48 5.44 13.24 5.44 13.24 4.61 15.49 2.4 15.49 4.15 16.68 3.48 18.84 5.44 17.57 5.44 17.57"/>
            <polygon class="cls-3" points="5.44 12.42 7.41 13.68 6.73 11.53 8.48 10.34 6.27 10.34 5.44 8.09 5.44 8.1 4.61 10.35 2.4 10.35 4.15 11.54 3.48 13.69 5.44 12.43 5.44 12.42"/>
            <polygon class="cls-3" points="5.44 7.33 7.41 8.59 6.73 6.43 8.48 5.25 6.27 5.25 5.44 3 5.44 3 4.61 5.25 2.4 5.26 4.15 6.45 3.48 8.6 5.44 7.34 5.44 7.33"/>
            <g class="cls-2">
                <path class="cls-5" d="M.23,17.67V.23H23.81V17.67c0,7.38-6.71,11.1-11.8,11.1C6.52,28.77.22,25.06.23,17.67Z" />
            </g>
        </g>
    </g>
</svg>
