<svg xmlns="http://www.w3.org/2000/svg" 
    xmlns:xlink="http://www.w3.org/1999/xlink" viewBox="0 0 24.03 29" preserveAspectRatio="xMinYMid">
    <defs>
        <clipPath id="clip-path" >
            <rect class="cls-1" fill="none" width="24.03" height="29"/>
        </clipPath>
    </defs>
    <g>
        <g>
            <g clip-path="url(#clip-path)">
                <path fill="#fff" d="M5.82,23.55a22.19,22.19,0,0,1,3.08.15.62.62,0,0,1,.32.83l0,0a.63.63,0,0,0-.45-.75,18.83,18.83,0,0,0-3-.19.53.53,0,0,1-.35-.5.73.73,0,0,0,.47.44" />
                <path class="cls-4" fill="none" stroke="#fff" stroke-width="0.02px" stroke-miterlimit="11.47" d="M5.82,23.55a22.19,22.19,0,0,1,3.08.15.62.62,0,0,1,.32.83l0,0a.63.63,0,0,0-.45-.75,18.83,18.83,0,0,0-3-.19.53.53,0,0,1-.35-.5A.73.73,0,0,0,5.82,23.55Z" />
            </g>
            <path fill="#faf214" d="M4.75,25.93l-.25-.21Z" />
            <g clip-path="url(#clip-path)">
                <path fill="#171714" d="M2,13.1a.84.84,0,1,1,.84.84A.83.83,0,0,1,2,13.1" />
                <path fill="#171714" d="M2.87,13.8a.69.69,0,1,0-.67-.7.67.67,0,0,0,.67.7" />
                <path fill="#171714" d="M3.31,13.26a.41.41,0,0,1-.41.35.48.48,0,0,1-.49-.51.47.47,0,0,1,.48-.5.39.39,0,0,1,.41.35H3.16a.26.26,0,0,0-.27-.2.32.32,0,0,0-.32.35.34.34,0,0,0,.33.37.25.25,0,0,0,.26-.21Z" />
                <path fill="#fff" d="M23.6.43.42.44v17.2c0,6,5.2,10.94,11.59,10.94S23.6,23.69,23.6,17.65Z" />
                <path fill="#c21a24" d="M3.33,9.35a1.9,1.9,0,0,1,.28-.17c-.2-.17-.83-.76-1.26-.62.16.19.78.73.73,1a3,3,0,0,1,.25-.25" />
                <path fill="#c21a24" d="M2.95,9.81a1.29,1.29,0,0,1,.21-.24c-.23-.09-1-.42-1.32-.17.2.14.88.31,1,.72a2.13,2.13,0,0,1,.15-.31" />
                <path fill="#c21a24" d="M2.74,10.36a1.34,1.34,0,0,1,.1-.3c-.25,0-.76-.08-1,.26.26.06.7.1.88.37a2.39,2.39,0,0,1,0-.33" />
                <path fill="#c21a24" d="M3.91,9.11a1.8,1.8,0,0,1,.34,0c-.07-.25-.41-1-.84-1.14,0,.25.37,1,.15,1.22l.35-.09" />
                <path fill="#c21a24" d="M2.7,10.69s-.8.25-.8.68a2.39,2.39,0,0,1,.92-.2Z" />
                <path fill="#c21a24" d="M5,22.9a1.46,1.46,0,0,1,.15-.28c-.28-.05-.92-.19-1.2.11.24.1.85.21,1,.49A2.61,2.61,0,0,1,5,22.9" />
                <path fill="#171714" d="M17,2.41a.76.76,0,0,1-.14.71c-.67.15-.57-.81-1.24-1A.88.88,0,0,1,17,2.41" />
                <path fill="#c21a24" d="M4.48,2.85a1.51,1.51,0,0,1,.33,0c-.1-.23-.54-1-1-1C4,2,4.33,2.72,4.14,3a2.77,2.77,0,0,1,.34-.12" />
                <path fill="#c21a24" d="M4.12,3.13A1.94,1.94,0,0,1,4.41,3c-.18-.16-.71-.69-1.14-.59.25.14.68.57.59,1a2.85,2.85,0,0,1,.26-.23" />
                <path fill="#c21a24" d="M4.07,3.39a1.23,1.23,0,0,1,.2-.25C4,3.06,3.18,2.82,2.84,3.07c.27.06,1,.32,1.1.62a3.26,3.26,0,0,1,.14-.31" />
                <path fill="#c21a24" d="M4.94,2.71a1.59,1.59,0,0,1,.33.05c0-.26-.2-1.09-.59-1.26.07.25.16,1-.1,1.23a2.42,2.42,0,0,1,.36,0" />
                <path fill="#c21a24" d="M3.93,3.41c-.06,0-.85-.05-1,.35a2.28,2.28,0,0,1,.93.13Z" />
                <path fill="#171714" d="M4,2.94a3.34,3.34,0,0,1,1.17-.47.41.41,0,0,1,.28.3c.4,1-.13,2.45,1.17,3a32.67,32.67,0,0,1,4.34,1.62l.14.16a3.62,3.62,0,0,0-.94,2.32.74.74,0,0,1-.76.08c-.07-.12-.11,0-.2,0L9.09,10c-.33-.06-.37-.71-.69-.42L8,9.14s-.1.06-.08.11c-.25,0-.32-.31-.41-.48a.33.33,0,0,1-.23.06l-.09,0-.25-.4a.19.19,0,0,1-.19.05c-.15-.05-.22-.35-.36-.45,0,.06-.11,0-.17,0A2.54,2.54,0,0,1,6,7.67a.17.17,0,0,1-.24,0,.17.17,0,0,1-.08-.13C5.79,6.94,4.8,7,4.9,6.38,3.63,6.08,4,4.66,3.63,3.87a.45.45,0,0,0-.16-.08A1.35,1.35,0,0,1,4,2.94" />
                <path fill="#171714" d="M5.09,22.6c.35-.14.9.24,1.41.26a.66.66,0,0,0,.72-.18c.28.09,0-.61,0-1.26,0-.14-.07-.31.09-.4-.07-.17-.2,0-.29-.08a1.19,1.19,0,0,1,.2-.77l-.28-.05c-.15-.24.38-.61-.08-.74,0-.31.64-.74.05-.87l.52-.82c-.1,0-.14-.07-.2-.1-.07-.34,1-.66.32-.82a4.57,4.57,0,0,1,1.69-1.14,5.7,5.7,0,0,1,2.53,0,4.44,4.44,0,0,1,.77.74c0,.21.23.48.49,1.1,0,0-.11.62-.13.52A3,3,0,0,0,10,19.43c-.72,1.5-.17,3.38,0,4.91-.79.81-2.15.58-3.29.55-.32,0-.74-.19-1-.1,0,0-.85-.67-.91-1.19a1.36,1.36,0,0,1,.26-1" />
                <path fill="#c21a24" d="M12.74,16.92a8.36,8.36,0,0,0-1.31-.71,2,2,0,0,1,1.09.12s.34.71.22.59" />
                <path fill="#fff" d="M11.25,4a1,1,0,0,0,.08.74c.26-.23.19-.48.44-.72Z" />
                <path class="cls-8" fill="none" stroke="#171714" stroke-width="0.05px" stroke-miterlimit="11.47" d="M11.25,4a1,1,0,0,0,.08.74c.26-.23.19-.48.44-.72Z" />
                <path fill="#c21a24" d="M12.34,5.32a9.92,9.92,0,0,1,1.31.09V5.19a7.25,7.25,0,0,0-1.54-.35c-.84,0-1.61.35-2.4-.1-.18-.15-.34-.41-.52-.51a.72.72,0,0,0-.11.6c.11.5.75.62,1.25.68a6.11,6.11,0,0,0,1.2,0,4.55,4.55,0,0,1,.8-.17" />
                <path fill="#fff" d="M11.8,4a1,1,0,0,0,.08.74c.26-.24.19-.49.44-.72Z" />
                <path class="cls-8" fill="none" stroke="#171714" stroke-width="0.05px" stroke-miterlimit="11.47" d="M11.8,4a1,1,0,0,0,.08.74c.26-.24.19-.49.44-.72Z" />
                <path fill="#fff" d="M11.53,5.94a.5.5,0,0,1-.05-.72c.25.22.17.47.44.73Z" />
                <path class="cls-8" fill="none" stroke="#171714" stroke-width="0.05px" stroke-miterlimit="11.47" d="M11.53,5.94a.5.5,0,0,1-.05-.72c.25.22.17.47.44.73Z" />
                <path fill="#fff" d="M11.94,5.93A1,1,0,0,1,12,5.2c.26.24.19.49.44.72Z" />
                <path class="cls-8" fill="none" stroke="#171714" stroke-width="0.05px" stroke-miterlimit="11.47" d="M11.94,5.93A1,1,0,0,1,12,5.2c.26.24.19.49.44.72Z" />
                <path fill="#171714" d="M13.14,5.65c.19-.07.24-.6.24-.6a1,1,0,0,0-.2-.63,1.11,1.11,0,0,0-.77-.22H11.09a.78.78,0,0,1,.06-.28.41.41,0,0,0,.06-.2,1.9,1.9,0,0,1-.06-1c1.4.49,2.51-.56,3.93-.52.54-.06.73.14,1.12.65.42.83,1.13,0,1.58.53a1,1,0,0,1,.23,1,1.48,1.48,0,0,1-1.12.51c.5.17.52.66.64,1,0,.67-.57,1.38-.07,2-.07.14-.27.06-.34.14.24.26.22.66.34.92-.15.22-.28-.08-.45,0a1.8,1.8,0,0,0,.25.77c-.14.15-.5,0-.6,0a.67.67,0,0,1,0,.66c-.1-.09-.23-.09-.33-.19-.05.17.13.42,0,.56-.1,0-.2-.14-.32-.14A13.75,13.75,0,0,0,16.31,14c.37,1.1,1.86,2,1.29,3.26L17.31,17l0,.37a.43.43,0,0,1-.17.13c-.22.07-.21-.49-.55-.53.57,1,.25,2.29.27,3.47-.05,1.63.94,2.88,1.49,4.27a4,4,0,0,1-3.07,1.9,1.74,1.74,0,0,1-1.42-.16,2.52,2.52,0,0,1-.72-1.13,1.23,1.23,0,0,1,.15-.64,2.27,2.27,0,0,1,2.16-.23c.39.09.48.1.48.1,0-.75-.87-1.21-1.24-1.84l-.12.18c-.25-.17-.2-.38-.25-.62H14.3c-.13.08.14.18-.07.25-.24-.2-.22-.48-.34-.74l0,.27c-.28-.12-.3-.47-.28-.77-.14.08-.14.21-.23.3-.27-.2-.17-.63-.08-.89l-.28.15c-.31-.22.1-.43,0-.71a.17.17,0,0,1-.25,0,14.92,14.92,0,0,1,.43-2.52c.11-.71-2.24-3.53-2.3-3.68-.15-.33-.23-.72-.34-.74s-.6-.28-.6.08c-.2-.11-.5,0-.67-.23v.15c-.2.18-.39-.06-.6,0a.26.26,0,0,1-.23.12c-.26,0-.59-.27-.71,0-.16-.14-.47,0-.6-.26-.22-.08-.1.18-.27.23l-.57-.3L6.11,13c-.67.07-1.1-.38-1.6-.7s-.67-.82-1.18-1.1a.6.6,0,0,0-.52,0,1.77,1.77,0,0,1-.14-.57,1.62,1.62,0,0,1,.25-.91,1.39,1.39,0,0,1,1.29-.68c.86.44.93,1.37,1.65,1.94-.49.23,4.21-.62,4.52-1.06C10.61,8.65,10.82,7.58,12,7c1-.94,2.82-.11,3.82-1.15.7-.61.05-1.81.92-2.32a1.45,1.45,0,0,1,1,.11c-.08-.18-.32-.23-.52-.25-1.39-.14-.82,1.31-1.24,2-.72,1.7-3.07.6-4.44.73,0,0-.31-.28-.23-.46a18.45,18.45,0,0,0,1.85,0" />
                <path fill="#c21a24" d="M15.63,3.44c-.15.09-.42,0-.6,0a9.07,9.07,0,0,0-1.33,0l-.08-.08c.3-.37,1.54-.25,2,.08" />
                <path fill="#fff" d="M14.3,3.74a.44.44,0,0,1,.76,0,.44.44,0,0,1-.76,0" />
                <path fill="#171714" d="M14.7,3.86a.19.19,0,0,0,.2-.18.19.19,0,0,0-.2-.19.2.2,0,0,0-.2.19.19.19,0,0,0,.2.18" />
                <path fill="#c21a24" d="M4.88,23.34A1.48,1.48,0,0,1,4.93,23c-.27,0-.88,0-1.06.42.27,0,.82,0,1,.21a3.31,3.31,0,0,1,0-.33" />
                <path fill="#c21a24" d="M5,23.81a1.29,1.29,0,0,1-.08-.3c-.21.11-.84.37-.84.77.24-.06.7-.37,1.1-.18a3.11,3.11,0,0,1-.17-.3" />
                <path fill="#c21a24" d="M5.2,24.25A1.42,1.42,0,0,1,5,24c-.18.16-.58.46-.46.86.23-.13.55-.41.88-.35,0,0-.19-.16-.26-.24" />
                <path fill="#c21a24" d="M5.58,24.59a1.64,1.64,0,0,1-.26-.2c-.1.2-.33.57-.09.88.29-.34.38-.5.68-.54,0,0-.24-.09-.32-.14" />
                <path fill="#c21a24" d="M14,26.49a1.41,1.41,0,0,1-.27-.21c-.11.22-.39.66-.11,1,.17-.21.38-.59.73-.64,0,0-.25-.1-.34-.15" />
                <path fill="#c21a24" d="M14.77,26.66a1.76,1.76,0,0,1-.35,0c0,.23.08.67.49.81,0-.45,0-.63.24-.83a3.28,3.28,0,0,1-.38,0" />
                <path fill="#c21a24" d="M13.28,25.43a1.36,1.36,0,0,1-.06-.32c-.26.11-.86.32-.9.76.28-.06.81-.28,1.11-.12a2.36,2.36,0,0,1-.15-.32" />
                <path fill="#c21a24" d="M13.59,26a1.55,1.55,0,0,1-.18-.28c-.17.17-.71.61-.58,1,.22-.14.57-.57,1-.5a3.63,3.63,0,0,1-.27-.24" />
                <path fill="#c21a24" d="M13.3,24.86a1.64,1.64,0,0,1,.12-.31c-.3,0-1-.1-1.24.25.26.08.92.12,1.08.41a2.66,2.66,0,0,1,0-.35" />
                <path class="cls-9" fill="none" stroke="#171714" stroke-miterlimit="3.86" stroke-width="0.45px" d="M.23,17.67V.23H23.81V17.67c0,7.38-6.71,11.1-11.8,11.1C6.52,28.77.22,25.06.23,17.67Z" />
            </g>
        </g>
    </g>
</svg>
