<svg xmlns="http://www.w3.org/2000/svg" 
    xmlns:xlink="http://www.w3.org/1999/xlink" viewBox="0 0 24.03 29" preserveAspectRatio="xMinYMid">
    <defs>
        <style>.cls-1,.cls-4,.cls-8,.cls-9{fill:none;}.cls-2{clip-path:url(#clip-path);}.cls-3{fill:#fff;}.cls-4{stroke:#fff;stroke-width:0.02px;}.cls-4,.cls-8{stroke-miterlimit:11.47;}.cls-5{fill:#faf214;}.cls-6{fill:#c21a24;}.cls-7{fill:#171714;}.cls-8,.cls-9{stroke:#171714;}.cls-8{stroke-width:0.05px;}.cls-9{stroke-miterlimit:3.86;stroke-width:0.45px;}</style>
        <clipPath id="clip-path" >
            <rect class="cls-1" width="24.03" height="29"/>
        </clipPath>
    </defs>
    <g>
        <g>
            <g class="cls-2">
                <path class="cls-3" d="M5.85,23.52a22.19,22.19,0,0,1,3.08.15.62.62,0,0,1,.32.83l0,0a.63.63,0,0,0-.45-.75,18.71,18.71,0,0,0-3-.19.53.53,0,0,1-.35-.5.73.73,0,0,0,.47.44" />
                <path class="cls-4" d="M5.85,23.52a22.19,22.19,0,0,1,3.08.15.62.62,0,0,1,.32.83l0,0a.63.63,0,0,0-.45-.75,18.71,18.71,0,0,0-3-.19.53.53,0,0,1-.35-.5A.73.73,0,0,0,5.85,23.52Z" />
            </g>
            <path class="cls-5" d="M4.79,25.9l-.25-.21Z" />
            <g class="cls-2">
                <path class="cls-3" d="M23.64.4.45.42v17.2c0,6,5.2,10.94,11.59,10.94s11.59-4.9,11.59-10.94Z" />
                <path class="cls-6" d="M3.36,9.32a1.9,1.9,0,0,1,.28-.17c-.2-.17-.83-.76-1.26-.62.16.19.78.73.73,1a2.86,2.86,0,0,1,.25-.25" />
                <path class="cls-6" d="M3,9.78a1.26,1.26,0,0,1,.21-.24c-.23-.09-1-.42-1.32-.17.2.14.88.31,1,.72A2.17,2.17,0,0,1,3,9.78" />
                <path class="cls-6" d="M2.77,10.33a1.34,1.34,0,0,1,.1-.3c-.25,0-.76-.08-1,.26.26.06.7.1.88.37a2.39,2.39,0,0,1,0-.33" />
                <path class="cls-6" d="M3.95,9.09a1.8,1.8,0,0,1,.34,0c-.07-.25-.41-1-.84-1.14,0,.25.37,1,.15,1.22l.35-.09" />
                <path class="cls-6" d="M2.74,10.66s-.8.25-.8.68a2.39,2.39,0,0,1,.92-.2Z" />
                <path class="cls-6" d="M5.08,22.87a1.4,1.4,0,0,1,.15-.28c-.28-.05-.92-.19-1.2.11.24.1.85.21,1,.49a2.61,2.61,0,0,1,.08-.32" />
                <path class="cls-7" d="M17,2.39a.75.75,0,0,1-.14.71c-.67.16-.57-.81-1.24-1A.88.88,0,0,1,17,2.39" />
                <path class="cls-6" d="M4.51,2.83a1.51,1.51,0,0,1,.33,0c-.1-.23-.54-1-1-1C4,2,4.36,2.69,4.17,3a2.77,2.77,0,0,1,.34-.12" />
                <path class="cls-6" d="M4.16,3.1a1.94,1.94,0,0,1,.29-.16c-.18-.16-.71-.69-1.14-.59.25.14.68.57.59,1a2.85,2.85,0,0,1,.26-.23" />
                <path class="cls-6" d="M4.11,3.36a1.22,1.22,0,0,1,.2-.25C4.08,3,3.22,2.79,2.87,3c.27.06,1,.32,1.1.62,0,0,.09-.22.14-.31" />
                <path class="cls-6" d="M5,2.68a1.59,1.59,0,0,1,.33.05c0-.26-.2-1.09-.59-1.26.07.25.16,1-.1,1.23a2.42,2.42,0,0,1,.36,0" />
                <path class="cls-6" d="M4,3.38c-.06,0-.85-.05-1,.35a2.28,2.28,0,0,1,.93.13Z" />
                <path class="cls-7" d="M4,2.91a3.34,3.34,0,0,1,1.17-.47.41.41,0,0,1,.28.3c.41,1-.13,2.45,1.18,3A32.7,32.7,0,0,1,11,7.3l.14.16a3.62,3.62,0,0,0-.94,2.32.74.74,0,0,1-.76.08c-.07-.12-.11,0-.2,0l-.09.08c-.33-.06-.37-.71-.69-.42L8,9.12s-.1.06-.08.11c-.25,0-.32-.31-.4-.48a.33.33,0,0,1-.23.06l-.09,0-.25-.4a.19.19,0,0,1-.19.05c-.15-.05-.22-.35-.36-.45,0,.06-.12,0-.17,0A2.54,2.54,0,0,1,6,7.64a.17.17,0,0,1-.24,0,.17.17,0,0,1-.08-.13c.15-.65-.84-.58-.74-1.21-1.27-.29-.85-1.72-1.27-2.5a.46.46,0,0,0-.16-.08A1.35,1.35,0,0,1,4,2.91" />
                <path class="cls-7" d="M1.67,14.93V15a1.25,1.25,0,0,1,.88.54,62.29,62.29,0,0,1,2.34,5.85H5c.72-1.83,1.51-3.79,2.31-5.76.34-.68.62-.52,1-.59V15H6.13V15c.25,0,.55,0,.67.31a7.52,7.52,0,0,1-.63,2.16c-.35,1-.58,1.64-.94,2.56C4.7,18.54,4,17.12,3.59,15.51c0-.4.17-.49.73-.51v-.06Z" />
                <path class="cls-7" d="M19.71,21V21c-.22-.11-.39-.06-.58-.41,0-.89-.05-1.77,0-2.64,0-.05.09-.08.18.07.46.76,1.42,3,2.67,2.91h.25a7.61,7.61,0,0,1-1.63-2.28c-.14-.28-.26-.47-.24-.59,0-.31.57,0,1.41-.54a1.52,1.52,0,0,0,.58-1.34c-.18-1.38-2.19-1.3-3.49-1.12a2.74,2.74,0,0,1-.65,0c-.35,0-.71-.12-.62-.08s.44.12.62.36c.07,2.09.05,3.15,0,5.13-.14.46-.43.5-.73.56V21Z" />
                <path class="cls-3" d="M21.48,15.78a1.51,1.51,0,0,1,0,1.33,2.37,2.37,0,0,1-2,.56,14,14,0,0,1,0-2.38,1.55,1.55,0,0,1,2,.49" />
                <path class="cls-7" d="M5.12,22.57c.35-.14.9.24,1.41.26a.66.66,0,0,0,.72-.18c.28.09,0-.61,0-1.26,0-.14-.07-.31.09-.4-.07-.17-.2,0-.29-.08a1.19,1.19,0,0,1,.2-.77l-.28-.05c-.15-.24.38-.61-.08-.74,0-.31.64-.74.05-.87l.52-.82c-.1,0-.14-.07-.2-.1-.07-.34,1-.66.32-.82a4.56,4.56,0,0,1,1.69-1.14,5.7,5.7,0,0,1,2.53,0,4.41,4.41,0,0,1,.77.74c0,.21.23.48.48,1.11,0,0-.11.62-.13.52a3,3,0,0,0-2.81,1.47c-.72,1.5-.17,3.38,0,4.91-.79.81-2.15.58-3.28.55-.32,0-.74-.19-1-.09,0,0-.85-.67-.91-1.19a1.36,1.36,0,0,1,.26-1" />
                <path class="cls-6" d="M12.77,16.89a8.37,8.37,0,0,0-1.31-.71,2,2,0,0,1,1.09.12s.34.71.22.59" />
                <path class="cls-3" d="M11.28,4a1,1,0,0,0,.08.74c.26-.23.18-.48.44-.72Z" />
                <path class="cls-8" d="M11.28,4a1,1,0,0,0,.08.74c.26-.23.18-.48.44-.72Z" />
                <path class="cls-6" d="M12.38,5.29a10.12,10.12,0,0,1,1.31.09V5.16a7.32,7.32,0,0,0-1.54-.35c-.84,0-1.61.35-2.4-.1-.18-.15-.34-.4-.52-.51a.72.72,0,0,0-.11.6c.11.5.75.62,1.25.68a6.18,6.18,0,0,0,1.2,0,4.54,4.54,0,0,1,.8-.17" />
                <path class="cls-3" d="M11.83,4a1,1,0,0,0,.08.74c.26-.24.19-.49.44-.72Z" />
                <path class="cls-8" d="M11.83,4a1,1,0,0,0,.08.74c.26-.24.19-.49.44-.72Z" />
                <path class="cls-3" d="M11.56,5.92a.5.5,0,0,1-.05-.72c.25.22.17.47.44.73Z" />
                <path class="cls-8" d="M11.56,5.92a.5.5,0,0,1-.05-.72c.25.22.17.47.44.73Z" />
                <path class="cls-3" d="M12,5.91a1,1,0,0,1,.08-.74c.26.24.19.49.44.72Z" />
                <path class="cls-8" d="M12,5.91a1,1,0,0,1,.08-.74c.26.24.19.49.44.72Z" />
                <path class="cls-7" d="M13.17,5.62c.19-.07.24-.6.24-.6a1,1,0,0,0-.2-.63,1.1,1.1,0,0,0-.77-.22H11.12a.77.77,0,0,1,.06-.28.42.42,0,0,0,.06-.2,1.91,1.91,0,0,1-.06-1c1.4.49,2.51-.56,3.93-.52.54-.06.73.14,1.11.65.42.83,1.13,0,1.58.53a1,1,0,0,1,.23,1,1.49,1.49,0,0,1-1.12.51c.5.17.52.66.64,1,0,.67-.57,1.38-.07,2-.07.14-.27.06-.34.14.24.26.22.66.34.92-.15.22-.28-.08-.45,0a1.79,1.79,0,0,0,.25.77c-.14.15-.5,0-.6,0a.67.67,0,0,1,0,.66c-.1-.09-.23-.09-.33-.19-.05.17.13.42,0,.56-.1,0-.2-.14-.32-.14A13.7,13.7,0,0,0,16.34,14c.37,1.1,1.86,2,1.29,3.26l-.29-.31,0,.37a.43.43,0,0,1-.17.13c-.22.07-.21-.49-.55-.53.57,1,.25,2.29.27,3.47-.05,1.63.94,2.88,1.49,4.27a4,4,0,0,1-3.07,1.9A1.74,1.74,0,0,1,14,26.38a2.52,2.52,0,0,1-.72-1.13,1.23,1.23,0,0,1,.15-.64,2.27,2.27,0,0,1,2.16-.23c.39.09.48.1.48.1,0-.75-.87-1.21-1.24-1.84l-.12.18c-.25-.17-.2-.38-.25-.62h-.08c-.13.08.14.18-.07.25-.23-.2-.22-.48-.34-.74l0,.27c-.28-.12-.3-.47-.28-.77-.14.08-.14.21-.23.3-.27-.2-.17-.63-.09-.89l-.28.15c-.3-.22.1-.43,0-.71a.17.17,0,0,1-.25,0,14.92,14.92,0,0,1,.43-2.52c.11-.71-2.26-3.53-2.3-3.68s-.29-.47,0-.66a4.25,4.25,0,0,0,1.48-.23,2.23,2.23,0,0,0,.8-1.11c-.22,0-.23.28-.35.42-.45.78-1.4.78-2.26.84-.17,0-.6-.28-.6.08-.2-.11-.5,0-.67-.23v.15c-.2.18-.39-.06-.6,0a.26.26,0,0,1-.23.12c-.26,0-.59-.27-.71,0-.17-.14-.47,0-.6-.26-.22-.08-.1.18-.27.23l-.57-.3L6.14,13c-.67.07-1.11-.38-1.61-.7s-.67-.82-1.18-1.1a.6.6,0,0,0-.52,0,1.77,1.77,0,0,1-.14-.57A1.62,1.62,0,0,1,3,9.71,1.39,1.39,0,0,1,4.25,9c.86.44.93,1.37,1.65,1.94-.49.23-.47,0-.12.22a17.65,17.65,0,0,0,4.71-1.33l-.09-.08A3,3,0,0,1,12.06,7c1-.94,2.83-.11,3.82-1.15.7-.61.05-1.81.92-2.32a1.45,1.45,0,0,1,1,.11c-.08-.18-.32-.23-.52-.25-1.39-.14-.82,1.31-1.24,2-.72,1.7-3.07.6-4.44.73,0,0-.31-.28-.23-.46a18.43,18.43,0,0,0,1.85,0" />
                <path class="cls-6" d="M15.69,3.33c-.15.09-.42,0-.6,0a9.08,9.08,0,0,0-1.33,0l-.08-.08c.3-.37,1.54-.25,2,.08" />
                <path class="cls-3" d="M14.34,3.71a.41.41,0,0,1,.38-.22.41.41,0,0,1,.38.22.44.44,0,0,1-.76,0" />
                <path class="cls-7" d="M14.74,3.83a.19.19,0,0,0,.2-.18.19.19,0,0,0-.2-.19.2.2,0,0,0-.2.19.19.19,0,0,0,.2.18" />
                <path class="cls-6" d="M4.91,23.31A1.48,1.48,0,0,1,5,23c-.27,0-.88,0-1.06.42.27,0,.82,0,1,.21,0,0,0-.24,0-.33" />
                <path class="cls-6" d="M5,23.79a1.29,1.29,0,0,1-.08-.3c-.21.11-.84.37-.84.77.24-.06.7-.37,1.1-.18a3,3,0,0,1-.17-.3" />
                <path class="cls-6" d="M5.23,24.22A1.42,1.42,0,0,1,5.07,24c-.18.16-.58.46-.46.86.23-.13.55-.41.88-.35,0,0-.19-.16-.26-.24" />
                <path class="cls-6" d="M5.61,24.56a1.7,1.7,0,0,1-.26-.2c-.1.2-.33.57-.09.88.29-.34.38-.5.68-.54,0,0-.24-.09-.32-.14" />
                <path class="cls-6" d="M14.07,26.46a1.41,1.41,0,0,1-.27-.21c-.11.22-.39.66-.11,1,.17-.21.38-.59.73-.64,0,0-.25-.1-.34-.15" />
                <path class="cls-6" d="M14.8,26.63a1.86,1.86,0,0,1-.35,0c0,.23.08.67.49.81,0-.45,0-.63.24-.83a3.28,3.28,0,0,1-.38,0" />
                <path class="cls-6" d="M13.31,25.4a1.33,1.33,0,0,1-.06-.32c-.26.11-.86.32-.89.76.28-.06.81-.29,1.11-.12a2.24,2.24,0,0,1-.15-.32" />
                <path class="cls-6" d="M13.62,26a1.59,1.59,0,0,1-.18-.28c-.17.17-.71.61-.58,1,.22-.14.57-.57,1-.5a3.63,3.63,0,0,1-.27-.24" />
                <path class="cls-6" d="M13.34,24.84a1.6,1.6,0,0,1,.12-.31c-.3,0-1-.1-1.24.25.26.08.92.12,1.08.41a2.66,2.66,0,0,1,0-.35" />
                <path class="cls-9" d="M.23,17.67V.23H23.81V17.67c0,7.38-6.71,11.1-11.8,11.1C6.52,28.77.22,25.06.23,17.67Z" />
            </g>
        </g>
    </g>
</svg>
