<svg xmlns="http://www.w3.org/2000/svg" 
    xmlns:xlink="http://www.w3.org/1999/xlink" viewBox="0 0 24.03 29" preserveAspectRatio="xMinYMid">
    <defs>
        <style>.cls-1,.cls-6,.cls-8{fill:none;}.cls-2{clip-path:url(#clip-path);}.cls-3{fill:#f2db38;}.cls-4{fill:#c2172e;}.cls-5{fill:#fff;}.cls-6,.cls-8{stroke:#171714;}.cls-6{stroke-miterlimit:11.47;stroke-width:0.05px;}.cls-7{fill:#171714;}.cls-8{stroke-miterlimit:3.86;stroke-width:0.45px;}</style>
        <clipPath id="clip-path">
            <rect class="cls-1" width="24.03" height="29"/>
        </clipPath>
    </defs>
    <g>
        <g>
            <g class="cls-2">
                <path class="cls-3" d="M23.65.38H.36v17.3c0,6.07,5.22,11,11.65,11s11.65-4.93,11.65-11Z"/>
                <path class="cls-4" d="M.36,15.07v2.68c0,6,5.19,10.95,11.59,10.95a12,12,0,0,0,7.1-2.3Z"/>
                <path class="cls-4" d="M2.78,9a1.42,1.42,0,0,0-.39-1.4A.83.83,0,0,1,3.12,8a2.58,2.58,0,0,1,.35.86Z"/>
                <path class="cls-4" d="M1.59,10c-.18-.75-.49-.63-.94-.64a.85.85,0,0,1,.8-.29,2.21,2.21,0,0,1,.82.27Z"/>
                <path class="cls-4" d="M2.1,9.33c0-.73-.66-.85-.92-.94A.84.84,0,0,1,2,8.34a2.85,2.85,0,0,1,.84.53Z"/>
                <path class="cls-4" d="M3.44,8.75a1.18,1.18,0,0,0,.32-1.14.84.84,0,0,1,.39.75.93.93,0,0,1-.07.56Z"/>
                <path class="cls-4" d="M3.9,8.92c.87-.14.75-.35.94-.63a.84.84,0,0,1-.19.84c-.16.2-.11.18-.34.29Z"/>
                <path class="cls-4" d="M5.87,6.17C5.2,5.12,3.62,4.73,3,4.47A3.61,3.61,0,0,1,1.54,2.72c0-.08,0-.12-.07,0-.43,1.53.86,2,2.11,2.37,0,0,1.86.37,1.81,1.08Z"/>
                <path class="cls-5" d="M5,4c-.78.08-.82.42-1,.67a1.35,1.35,0,0,1,.16-1.07Z"/>
                <path class="cls-6" d="M5,4c-.8.09-.84.44-1.08.71A1.48,1.48,0,0,1,4.1,3.6"/>
                <path class="cls-5" d="M3.42,3.42a2.11,2.11,0,0,0-.16,1.07c.23-.25.34-.72,1.12-.8Z"/>
                <path class="cls-6" d="M3.4,3.4a2.34,2.34,0,0,0-.16,1.13c.23-.27.35-.76,1.15-.85"/>
                <path class="cls-5" d="M4.79,6.08c-.69-.39-.51-.4-.62-.73-.19.3-.37.39-.25.68Z"/>
                <path class="cls-6" d="M4.81,6.1c-.71-.43-.53-.44-.64-.8-.2.33-.38.43-.26.75"/>
                <path class="cls-5" d="M3.3,5.93a.79.79,0,0,1,.12-.83A1.2,1.2,0,0,0,4,6Z"/>
                <path class="cls-6" d="M3.27,5.94A.88.88,0,0,1,3.4,5,1.31,1.31,0,0,0,4,6"/>
                <path class="cls-7" d="M8.11,2.56s.47.45.73.69c.06,0,.43-.15.67-.11,0-.32-.08-.49-.51-.78-.25-.17-.64,0-.89.2"/>
                <path class="cls-4" d="M5.89,16c-.4-.83-.82-.62-1.23-.76.13-.35.8-.3,1-.2s.51.54.64.68Z"/>
                <path class="cls-4" d="M5.69,17.06a1.33,1.33,0,0,0-1.13-.15A.6.6,0,0,1,5,16.46a2.05,2.05,0,0,1,.67-.13Z"/>
                <path class="cls-4" d="M5.73,16.56c-.28-.43-1.26-.37-1.48-.33a1,1,0,0,1,.61-.47A2.93,2.93,0,0,1,6,15.89Z"/>
                <path class="cls-4" d="M6.18,15.75a1.7,1.7,0,0,0-.36-1.23c.29,0,.58.35.72.52a1.08,1.08,0,0,1,.23.5Z"/>
                <path class="cls-4" d="M6.64,15.6c.54-.38.35-.7.36-.93a1,1,0,0,1,.31.77c0,.17-.07.16-.17.31Z"/>
                <path class="cls-4" d="M11.58,18.8a.9.9,0,0,0-1-.67,1.06,1.06,0,0,1,.86-.25c.27,0,.54.31.77.42Z"/>
                <path class="cls-4" d="M11.79,19.94a1.56,1.56,0,0,0-1.28.49.77.77,0,0,1,.28-.79,2.37,2.37,0,0,1,.76-.39Z"/>
                <path class="cls-4" d="M11.58,19.31a1.2,1.2,0,0,0-1.32,0c0-.3.23-.45.52-.58a3.72,3.72,0,0,1,1,0Z"/>
                <path class="cls-4" d="M11.88,18.13a1.06,1.06,0,0,0-.75-.79,1.12,1.12,0,0,1,.9.13c.22.12.25.23.38.42Z"/>
                <path class="cls-4" d="M12.29,18c.43-.6.26-.62.14-.92a.47.47,0,0,1,.52.37A1,1,0,0,1,13,18Z"/>
                <path class="cls-4" d="M17.39,22.24c-.74-.52-.9-.53-1.26-.47.18-.32.28-.4.6-.43a3.27,3.27,0,0,1,1,.2Z"/>
                <path class="cls-4" d="M18.08,23.26c-.81.48-.91.48-1.13.87a.89.89,0,0,1,.13-.89,2.22,2.22,0,0,1,.63-.6Z"/>
                <path class="cls-4" d="M17.61,23a1.47,1.47,0,0,0-1.48-.15c0-.26.21-.48.34-.59s.75-.12,1-.18Z"/>
                <path class="cls-4" d="M17.54,21.56a1.57,1.57,0,0,0-1-.92,1,1,0,0,1,.92-.12,1.66,1.66,0,0,1,.64.42Z"/>
                <path class="cls-4" d="M17.87,21.29a1.56,1.56,0,0,0-.12-1.51.93.93,0,0,1,.77.45c.11.23,0,.27,0,.52Z"/>
                <path class="cls-7" d="M1.43,9.76a5.24,5.24,0,0,0,0,1.37.88.88,0,0,0,.24.35c.22.28.65.24.6.46s-.37-.16-.55-.12,0,.2,0,.26c.29.46.48,1,1,1.2a4.53,4.53,0,0,0,2.31-.07c.31,0,.59-.12.9-.18a13.93,13.93,0,0,0,1.59-.46c.25-.09.67-.18.75-.52a3.93,3.93,0,0,0,0-1.17,4.64,4.64,0,0,0-.28-1,3.31,3.31,0,0,0-.67-1.12c-1.13.82-1.92,2.14-3.28,2.62.1.09.29.68.2.8a.12.12,0,0,1-.15,0,2.52,2.52,0,0,1-.13-2,3.39,3.39,0,0,1,.6-1c-1-1.55-3.16.33-3.16.52"/>
                <path class="cls-7" d="M17.51,13.1a2.84,2.84,0,0,0-.74-1.52s.05-.08.09-.08c.23,0,.35.19.49.36a1.93,1.93,0,0,1,.32.75c.33,1.19.24,2.38.53,3.6a2.77,2.77,0,0,0,.24.75,19.63,19.63,0,0,1,1.64,3.25,1.83,1.83,0,0,1,0,1.42c0,.08-.19.27-.26.11s.16-.47,0-.69a1.52,1.52,0,0,0-.89-.48.9.9,0,0,1-.26-.17c-2,.52-1.55,3.16-1,3.21.31-.12.14-.06.52-.19.66-.23,1.37,0,2-.3s1-1,1.5-1.49a1.29,1.29,0,0,0,.41-.58,27.53,27.53,0,0,0,.29-4.38,8.85,8.85,0,0,0-.07-1.86,14.71,14.71,0,0,0-.64-2.36.12.12,0,0,1,.09-.14,1,1,0,0,1,.32.56c.07.21.18.69.34.75s.14-.17.19-.26a1.3,1.3,0,0,0,0-1.08c-.05-.12-.07-.25-.13-.36A6.51,6.51,0,0,0,21,10.17a13.94,13.94,0,0,0-4.07-2.42c-.41-.16-.84-.31-1.25-.5a18.82,18.82,0,0,0-3.2-1c-.15,0-.3,0-.44,0A.12.12,0,0,1,12,6a2.87,2.87,0,0,1,.7-.11,1.83,1.83,0,0,0-1.25-.24,1.18,1.18,0,0,1,.93-.28,2.84,2.84,0,0,0-1.46-.15A1.55,1.55,0,0,1,11.57,5a1.69,1.69,0,0,0-1.38.13c-.09.07-1.1.06-.9-.34.11-.22.39-.07.61-.18s.38-.11.35-.76c0-.39-.53-.49-.77-.51a2.24,2.24,0,0,0-.63.09c-.14,0-.45-.41-.68-.61a3.31,3.31,0,0,0-1.29-.57,1.49,1.49,0,0,0-.8,0c-.12,0-.2.18-.29.24a4,4,0,0,1-1.37,0c-.28,0-.48-.3-.67-.51,0,0-.18,0-.16,0,.13.54-.32.78-.6,1.13a.31.31,0,0,0-.06.28c.05.1,0,.12.26.23s2.26.53,2.56,2.48a11.52,11.52,0,0,0-2.56-.39A.74.74,0,0,0,3,5.82c-.09.06.1.16.08.28a4.62,4.62,0,0,1,2.85.78,4.22,4.22,0,0,1,.92.73A7.16,7.16,0,0,1,8.08,9.33,7.67,7.67,0,0,1,8.64,13a5.84,5.84,0,0,1-.21,1.27c-.13.37-.3.7-.46,1.06s-.18,1.24-.34,1.34a.1.1,0,0,1-.15,0c-.06-.05,0-.74-.06-.6.12-.69-.64-.71-1.26-.47S5.34,17,5.34,17s.48.7.81.81c1.06.35,3.16-.11,3.26-.39a43.56,43.56,0,0,1,2.69-6c-.05-.24-.35-.5-.53-.77,0,0,0-.15,0-.13a1.69,1.69,0,0,1,.8.65c.12.23-.46,1.21-.38,1.22a22.4,22.4,0,0,1,4.92.44s.15.14.1.15c-1.22.16-3,.09-3.31,1.54a20.16,20.16,0,0,1,.41,3.62c0,.45.68.29,1,.42,0,0,0,.11-.05.13a.93.93,0,0,1-.46,0,5.35,5.35,0,0,1-1.15-.4c-.19-.09-.3-.42-.53-.48-2.21-.63-1.84,2.13-1.55,2.22s.52.18.69.08-.06-.34.08-.5.09,0,.15,0,0,.14,0,.21.07.28.18.38.31.06.46.11a4.47,4.47,0,0,0,2,0,3.42,3.42,0,0,0,1.39-1.16c.17-.63.14-1.28.35-1.9a3.55,3.55,0,0,1,.75-1.25c.1-.11.3-.2.3-.32Z"/>
                <path class="cls-4" d="M17.59,13.92a1.58,1.58,0,0,0-1.17-.22A.74.74,0,0,1,17,13.4a1.24,1.24,0,0,1,.55.07Z"/>
                <path class="cls-5" d="M6.47,3.52s-.21-.06-.21-.18.15-.12.23-.15S6.58,3,6.35,3a.45.45,0,0,0-.4.4c0,.22.32.4.4.4a.14.14,0,0,0,.12-.24"/>
                <path class="cls-5" d="M6.55,2.8c.09,0,.13.11.14.37s-.17.77,0,.77,0-.35.11-.56,0-.82-.25-.82c-.09,0-.17.06-.17.12s.08.12.17.12"/>
            </g>
            <polygon class="cls-4" points="6.35 0.23 23.61 10.7 23.61 0.23 6.35 0.23"/>
            <g class="cls-2">
                <path class="cls-8" d="M.23,17.67V.22H23.81V17.67c0,7.38-6.71,11.1-11.8,11.1C6.52,28.77.22,25.05.23,17.67Z"/>
            </g>
        </g>
    </g>
</svg>
