<svg xmlns="http://www.w3.org/2000/svg" 
    xmlns:xlink="http://www.w3.org/1999/xlink" viewBox="0 0 24.03 29" preserveAspectRatio="xMinYMid">
    <defs>
        <style>.cls-1,.cls-10,.cls-4,.cls-7,.cls-9{fill:none;}.cls-2{clip-path:url(#clip-path);}.cls-3{fill:#c2172e;}.cls-10,.cls-4,.cls-7,.cls-9{stroke:#171714;}.cls-4{stroke-miterlimit:3.86;stroke-width:0.45px;}.cls-5{fill:#f2db38;}.cls-6{fill:#171714;}.cls-10,.cls-7,.cls-9{stroke-miterlimit:11.47;}.cls-7{stroke-width:0.03px;}.cls-8{fill:#fff;}.cls-9{stroke-width:0.08px;}.cls-10{stroke-width:0.05px;}</style>
        <clipPath id="clip-path" >
            <rect class="cls-1" width="24.03" height="29"/>
        </clipPath>
    </defs>
    <g>
        <g>
            <g class="cls-2">
                <path class="cls-3" d="M.23,17.67V.23H23.8V17.67c0,7.38-6.71,11.1-11.8,11.1C6.52,28.77.22,25.06.23,17.67" />
                <path class="cls-4" d="M.23,17.67V.23H23.8V17.67c0,7.38-6.71,11.1-11.8,11.1C6.52,28.77.22,25.06.23,17.67Z" />
                <path class="cls-5" d="M13.87,6.78A3,3,0,0,0,17,3.91a3,3,0,0,0-3.11-2.86,3,3,0,0,0-3.11,2.86,3,3,0,0,0,3.11,2.87" />
                <path class="cls-6" d="M13.81,5.86a2,2,0,0,0,2.09-2,2.1,2.1,0,0,0-4.18,0,2,2,0,0,0,2.09,2" />
                <ellipse class="cls-7" cx="13.81" cy="3.9" rx="2.09" ry="1.96"/>
                <path class="cls-6" d="M13,5.6l-.57,1.08a6.46,6.46,0,0,1-1.53,1.63A9.44,9.44,0,0,1,8.16,9.45a7.31,7.31,0,0,1-1.57.22l.15,1.5h4.14S9.8,24.5,9.8,24.5c1.33,0,4.08,0,4.08,0S12,14.39,12,14.39l.23-.06,2,10.14h2.07c.07,0,.15.1,0,.25-1,.83-1.52,1.12-1.23,1.55s1-.11,3.26-1.21C18.1,24.2,16.72,13,16.72,13l1.72,0a.71.71,0,0,0,.37-.15c.33-.27.21-.7.11-1.05-.29-1.06-.64-2-1-3.08a7.31,7.31,0,0,0-.49-1.27.7.7,0,0,0-.24-.24c-.5-.27-1-.5-1.47-.81a5.76,5.76,0,0,1-1-.87Z" />
                <path class="cls-8" d="M14.91,4.31a2.9,2.9,0,0,1-.08,1c-.11.5-1,.39-1.53.42-.14-.06-.23-.07-.37-.42a3.72,3.72,0,0,1-.15-1.92c.2-.34,1.11-.42,1.78-.31s.3.88.35,1.22" />
                <path class="cls-6" d="M13.59,3.84c0,.18-.08.76,0,1H14V5a2.19,2.19,0,0,1-.57,0,4.15,4.15,0,0,1,0-1c-.11-.28-.51.08-.55-.14s.6-.19.66,0" />
            </g>
            <polygon class="cls-8" points="14.62 6.75 14.76 5.59 14.41 6.38 13.31 6.38 13.01 5.65 13.15 6.75 14.62 6.75"/>
            <g class="cls-2">
                <path class="cls-6" d="M13.14,4.31a.12.12,0,0,0,.12-.12.13.13,0,0,0-.12-.12.12.12,0,0,0-.12.12.12.12,0,0,0,.13.13" />
                <path class="cls-6" d="M14.29,4.31a.12.12,0,0,0,0-.25.12.12,0,1,0,0,.25" />
            </g>
            <polygon class="cls-5" points="6.82 25.86 4.11 2.22 3.25 2.31 6.19 25.95 6.82 25.86"/>
            <g class="cls-2">
                <path class="cls-5" d="M3.7,2.66c.52-.06.9-.4.85-.75s-.5-.59-1-.52-.9.4-.85.75.49.58,1,.52" />
                <path class="cls-5" d="M4.39,8.69c.5-.06.87-.38.82-.72s-.47-.56-1-.5-.86.38-.82.72.48.56,1,.5" />
                <path class="cls-8" d="M5,11.16H6.74l-.15-1.5H3.84a.27.27,0,0,0,.26.28H5a.89.89,0,0,1,.34.14,1.42,1.42,0,0,1,.19.28.37.37,0,0,0-.35-.28Z" />
                <path class="cls-9" d="M5,11.2h1.7L6.57,9.63H3.8a.28.28,0,0,0,.26.29H5a.86.86,0,0,1,.35.15,1.51,1.51,0,0,1,.19.29.38.38,0,0,0-.35-.3" />
                <path class="cls-6" d="M10.83,26a.45.45,0,0,0,.45-.45c0-.25,0-.84,0-.84H9.77a1,1,0,0,1-.63.34c-.42.06-1.15.06-1.15.06A.45.45,0,0,0,8,26Z" />
                <path class="cls-6" d="M13.93,3.86c.09.11.32-.09.4-.08s.34.18.43.11-.17-.24-.44-.26-.46.15-.39.23" />
                <path class="cls-6" d="M14.07,5.42a.1.1,0,0,0,.09-.1.09.09,0,0,0-.09-.09H13.5a.09.09,0,0,0-.09.09.1.1,0,0,0,.09.1Z" />
                <path class="cls-8" d="M12.45,12.42l.18-.88H12.4a.16.16,0,0,1-.17-.14.15.15,0,0,1,.17-.15h1.54c.38,0,.25,0,.32.35l.1.8c.06.36.06.33-.33.33h.24l-2,0a.15.15,0,0,1-.16-.14.16.16,0,0,1,.16-.15h.19Z" />
                <path class="cls-10" d="M12.45,12.42l.18-.88H12.4a.16.16,0,0,1-.17-.14.15.15,0,0,1,.17-.15h1.54c.38,0,.25,0,.32.35l.1.8c.06.36.06.33-.33.33h.24l-2,0a.15.15,0,0,1-.16-.14.16.16,0,0,1,.16-.15h.19Z" />
                <path class="cls-8" d="M5,10.32c.08,0,.15-.09.15-.2s-.07-.2-.15-.2H4.13a.18.18,0,0,0-.15.2.18.18,0,0,0,.15.2Z" />
                <path class="cls-9" d="M5,10.32c.08,0,.15-.09.15-.2s-.07-.2-.15-.2H4.13a.18.18,0,0,0-.15.2.18.18,0,0,0,.15.2Z" />
                <path class="cls-8" d="M5.08,10.64c.09,0,.15-.09.15-.2s-.06-.2-.15-.2H4.17c-.08,0-.15.09-.15.2s.07.2.15.2Z" />
                <path class="cls-9" d="M5.08,10.64c.09,0,.15-.09.15-.2s-.06-.2-.15-.2H4.17c-.08,0-.15.09-.15.2s.07.2.15.2Z" />
                <path class="cls-8" d="M5.1,10.94a.17.17,0,0,0,.15-.18.16.16,0,0,0-.15-.18H4.2a.17.17,0,0,0-.15.18.17.17,0,0,0,.15.18Z" />
                <path class="cls-9" d="M5.1,10.94a.17.17,0,0,0,.15-.18.16.16,0,0,0-.15-.18H4.2a.17.17,0,0,0-.15.18.17.17,0,0,0,.15.18Z" />
                <path class="cls-8" d="M5.14,11.2A.16.16,0,0,0,5.28,11a.16.16,0,0,0-.14-.17H4.27a.16.16,0,0,0-.15.17.16.16,0,0,0,.15.17Z" />
                <path class="cls-9" d="M5.14,11.2A.16.16,0,0,0,5.28,11a.16.16,0,0,0-.14-.17H4.27a.16.16,0,0,0-.15.17.16.16,0,0,0,.15.17Z" />
            </g>
            <rect class="cls-5" x="12.99" y="9.35" width="2.73" height="1.86"/>
            <rect class="cls-5" x="12.46" y="9.35" width="0.4" height="1.86"/>
            <rect class="cls-5" x="12.08" y="9.35" width="0.27" height="1.86"/>
            <g class="cls-2">
                <path class="cls-8" d="M12.88,12.12h-.65a.15.15,0,0,0-.16.14.15.15,0,0,0,.16.14h.65Z" />
                <path class="cls-10" d="M12.88,12.1h-.67a.16.16,0,0,0-.17.16.16.16,0,0,0,.17.16h.67" />
                <path class="cls-8" d="M12.86,11.84H12.2A.15.15,0,0,0,12,12a.15.15,0,0,0,.16.14h.65Z" />
                <path class="cls-10" d="M12.86,11.82h-.67A.16.16,0,0,0,12,12a.17.17,0,0,0,.16.17h.67" />
                <path class="cls-8" d="M12.85,11.83h-.66c-.09,0-.15,0-.22-.13s-.15-.22-.15-.22a.15.15,0,0,1,.06-.2.15.15,0,0,1,.2.09s.06.18.17.18h.59Z" />
                <path class="cls-10" d="M12.85,11.85h-.67c-.09,0-.15-.05-.22-.14s-.15-.24-.15-.24a.17.17,0,0,1,.06-.22.15.15,0,0,1,.2.1s.06.19.17.2h.61" />
            </g>
        </g>
    </g>
</svg>