<svg xmlns="http://www.w3.org/2000/svg" 
    xmlns:xlink="http://www.w3.org/1999/xlink" viewBox="0 0 24.03 29" preserveAspectRatio="xMinYMid">
    <defs>
        <style>.cls-1,.cls-10,.cls-11,.cls-7,.cls-9{fill:none;}.cls-2{clip-path:url(#clip-path);}.cls-3{fill:#fff;}.cls-4{fill:#171714;}.cls-5{fill:#f2db38;}.cls-6{fill:#2673bd;}.cls-10,.cls-11,.cls-7{stroke:#171714;}.cls-7{stroke-miterlimit:3.86;}.cls-11,.cls-7{stroke-width:0.45px;}.cls-8{fill:#c2172e;}.cls-9{stroke:#fff;stroke-width:0.11px;}.cls-10,.cls-11,.cls-9{stroke-miterlimit:11.47;}.cls-10{stroke-width:0.05px;}</style>
        <clipPath id="clip-path" >
            <rect class="cls-1" width="24.03" height="29"/>
        </clipPath>
    </defs>
    <g>
        <g>
            <g class="cls-2">
                <path class="cls-3" d="M23.6,14.05h0V.47H12v0H.42V17.69c0,6,5.19,10.94,11.59,10.94S23.6,23.73,23.6,17.69Z" />
            </g>
            <polygon class="cls-4" points="4.4 0.42 0.42 0.42 0.44 13.57 6.22 13.57 6.2 0.42 4.4 0.42"/>
            <polygon class="cls-5" points="16.35 0.4 12.54 0.4 12.54 6.91 18.07 6.91 18.07 0.4 16.35 0.4"/>
            <polygon class="cls-6" points="19.79 0.4 18.07 0.4 18.07 6.91 23.6 6.91 23.6 0.4 19.79 0.4"/>
            <polygon class="cls-6" points="16.35 13.4 12.54 13.4 12.54 6.91 18.07 6.91 18.07 13.4 16.35 13.4"/>
            <rect class="cls-6" x="12.54" y="0.4" width="3.81" height="4.74"/>
            <rect class="cls-5" x="19.79" y="0.4" width="3.81" height="4.74"/>
            <polygon class="cls-5" points="19.79 13.4 23.6 13.4 23.6 6.91 18.07 6.91 18.07 13.4 19.79 13.4"/>
            <rect class="cls-6" x="19.79" y="8.67" width="3.81" height="4.73"/>
            <rect class="cls-5" x="12.54" y="8.67" width="3.81" height="4.73"/>
            <g class="cls-2">
                <path class="cls-7" d="M.23,17.67V.23H23.81V17.67c0,7.38-6.71,11.1-11.8,11.1C6.52,28.77.22,25.06.23,17.67Z" />
                <path class="cls-4" d="M4.7,16a5,5,0,0,0,2.65.58c.22.14.33.49.49.74l.57.8a.86.86,0,0,0,.28.27,4,4,0,0,0-.48,1.28c-.29-.1-.66,0-.72-.36-.23-.81-.14-2-1.25-2.13-.37-.11-.87-.47-1.23-.07-.12,0,0-.25-.18-.32-.31.11-.66.42-1,.15-.27-.1-.45-.43-.74-.5l1.08,0c0-.06.12-.16,0-.21a.57.57,0,0,0-.19,0,1.41,1.41,0,0,1-.54,0,2.76,2.76,0,0,1-.18-.3c.48.19,1-.11,1.47.06" />
                <path class="cls-4" d="M12.93,17.34a2.06,2.06,0,0,1-.56,1.46c.14.21.5.09.73.19a8.85,8.85,0,0,1,2.4.77,5.45,5.45,0,0,1,1.05.59c.24-.11.45-.34.75-.31.58,0,1,.61,1.48.55a.33.33,0,0,1,.17,0c-.07.12,0,.25-.39.32s-.45-.25-.49,0,.17.15.17.27-.51,0-.65-.36c0-.18-.36-.4-.36-.4s-.45-.12-.48.1c.63.68.43,2,1.58,2.26.15.13.06.34,0,.5a17.81,17.81,0,0,0,.09,2.4c-.23.28-.6-.06-.79.3,0,.49-.58.41-.88.61s-.22.14-.3.05c.11-.28.42-.58.51-.88-.14-.11-.24.12-.36.2s-.13.38-.42.36l-.19,0c.32-.35.65-1,1.16-.79a.55.55,0,0,0,.52-.32c0-.77.18-1.74-.63-2a10.88,10.88,0,0,1-1.47-.55,1.76,1.76,0,0,1-.5-.87c-.26-.43-.59-1-1.15-1-.14,0-.17,0-.33,0,.15.23.42.23.65.38a14.35,14.35,0,0,0-3.28.06c0-.26.39-.53.09-.67s-.21.33-.3.49-.24.61-.55.67a8.63,8.63,0,0,0-2-.79,1.69,1.69,0,0,1-.54-.15A1.27,1.27,0,0,0,6.38,21c-.36.18-.57,1.23-1.1.59-.34.12-.26.59-.64.64h-1l.71-.75c0-.06,0-.08-.05-.12a2,2,0,0,0-.51.42c-.19.11-.3-.1-.48-.1.28-.13.67-.37,1-.53a1.09,1.09,0,0,0,.64-.1c1-.14,1.45-1.63,2.63-1.19L9.06,20c.1-.06.37,0,.27-.24H8.49a1.57,1.57,0,0,1,.73-1.43l1.42-.44c.24-.12.61-.24.64-.57.13-.09.3,0,.45.05a1,1,0,0,0,.87-.36.64.64,0,0,1,.33.35" />
                <path class="cls-4" d="M14.64,21.47a9.35,9.35,0,0,0,.44.91,1.66,1.66,0,0,0,.5.47.44.44,0,0,1-.25.22c-.13.05-.26.07-.33-.07s-.16,0-.27,0c-.29-.07,0-.69,0-1-.33.34-.81,1-.59,1.47.09.24.44.53,0,.67a3.91,3.91,0,0,0-2.36,1.37.2.2,0,0,1-.27.07c-.15-.07-.18-.34-.33-.13a3.38,3.38,0,0,0-.41.62c-.24,0-.65.12-.9.17a6.29,6.29,0,0,1,.39-.85c-.27-.12-.34.34-.51.5h0l-.49.08c.25-.34.61-.54.8-1a3.37,3.37,0,0,0,2.71-1.4c-.32-.28-.68-.61-.59-1.13a2.37,2.37,0,0,1,2.27-1.08Z" />
                <path class="cls-8" d="M14.41,21.63a.58.58,0,0,0-.38.12,3,3,0,0,1,.42.05,2.69,2.69,0,0,1,.4.14l-.13-.26s-.06-.06-.31-.06" />
                <path class="cls-4" d="M17.89,15.88a.37.37,0,0,0,0-.13.42.42,0,0,0-.77-.21l.14,0a.38.38,0,0,0,0-.13.41.41,0,0,0-.8-.14l.08,0a.44.44,0,0,0,0-.12.41.41,0,0,0-.42-.4.5.5,0,0,0-.49.33l.08,0s0,0,0,0a.44.44,0,0,0-.47-.4.5.5,0,0,0-.5.36h.14a.46.46,0,0,0-.5-.35.44.44,0,0,0-.47.41v0l.08,0a.47.47,0,0,0-.46-.3.44.44,0,0,0-.46.42s0,.27,0,.27a1.3,1.3,0,0,0-1.08-.43,2,2,0,0,0-.93.27c-.48.29-.89.66-1.49.31-.14.12.08.18.08.3-.37.59.59.15.64.53l-.66.26a.6.6,0,0,0,.17.25L10,17c.17,0,.42-.17.56,0a.41.41,0,0,1-.27.46c.12,0,.22-.06.36,0a.57.57,0,0,0,.31-.36,1.32,1.32,0,0,1,.59,0c.45.19.76-.2,1.08-.41.36.53.78.37,1.33.26-.12-.13-.17-.34-.36-.4a3.94,3.94,0,0,1-.64-.2,1.05,1.05,0,0,1,.31-.15,4.71,4.71,0,0,1,3.11.47,3.3,3.3,0,0,1,1.79,2.7l.14-.26a1.09,1.09,0,0,0,.15-.59.31.31,0,0,0-.16-.28l0,.14a.43.43,0,0,0,.07-.23.4.4,0,0,0-.33-.4l0,.09a.36.36,0,0,0,0-.2.41.41,0,0,0-.4-.41l.08.12a.42.42,0,0,0,0-.2.4.4,0,0,0-.41-.4v.1a.5.5,0,0,0,0-.18.41.41,0,0,0-.42-.4.37.37,0,0,0-.19.05l.11,0a.41.41,0,0,0-.41-.41.5.5,0,0,0-.16,0l0-.17c.42-.09.54-.05,1.15.26a3.75,3.75,0,0,1,1.49,1.52.65.65,0,0,0,.08-.39c0-.19-.09-.26-.27-.31l.09.27a.4.4,0,0,0,.11-.28.41.41,0,0,0-.42-.41h-.08l.15.23a.4.4,0,0,0,.07-.24.41.41,0,0,0-.41-.4.51.51,0,0,0-.19,0l.17.18a.45.45,0,0,0,0-.2.41.41,0,0,0-.41-.4.43.43,0,0,0-.27.11Z" />
                <path class="cls-9" d="M16.74,15.9l-.23,0a.44.44,0,0,0-.44-.44.52.52,0,0,0-.37.13c0-.23-.16-.36-.36-.36a.51.51,0,0,0-.4.15.39.39,0,0,0-.35-.25.69.69,0,0,0-.48.26.57.57,0,0,0-.48-.22c-.21,0-.5.27-.5.27" />
                <path class="cls-3" d="M12.05,15.89a.34.34,0,0,0-.32-.15.38.38,0,0,0-.32.16.37.37,0,0,0,.32.16.34.34,0,0,0,.33-.17" />
                <path class="cls-4" d="M11.74,16a.18.18,0,1,0,0-.36.18.18,0,0,0-.18.18.18.18,0,0,0,.18.17" />
                <path class="cls-8" d="M10.41,16.72c-.25.06-1,.23-1.36,0S8.84,16,8.95,16s.11.17.23.32.12.16.18.19a1,1,0,0,0,.31.05l.74,0Z" />
                <path class="cls-10" d="M10.41,16.72c-.25.06-1,.23-1.36,0S8.84,16,8.95,16s.11.17.23.32.12.16.18.19a1,1,0,0,0,.31.05l.74,0Z" />
                <line class="cls-11" x1="0.4" y1="13.47" x2="23.6" y2="13.47"/>
            </g>
        </g>
    </g>
</svg>
