<svg xmlns="http://www.w3.org/2000/svg" 
    xmlns:xlink="http://www.w3.org/1999/xlink" viewBox="0 0 24.03 29" preserveAspectRatio="xMinYMid">
    <defs>
        <style>.cls-1,.cls-5,.cls-7{fill:none;}.cls-2{clip-path:url(#clip-path);}.cls-3{fill:#c2172e;}.cls-4{fill:#fff;}.cls-5{stroke:#fff;stroke-miterlimit:11.47;stroke-width:0.08px;}.cls-6{fill:#c21a24;}.cls-7{stroke:#171714;stroke-miterlimit:3.86;stroke-width:0.45px;}</style>
        <clipPath id="clip-path">
            <rect class="cls-1" width="24.03" height="29"/>
        </clipPath>
    </defs>
    <g>
        <g>
            <g class="cls-2">
                <path class="cls-3" d="M23.67.4H.41V17.67c0,6,4.59,10.94,11.67,10.94,6.4,0,11.59-4.9,11.59-10.94Z"/>
            </g>
            <polygon class="cls-4" points="14.04 10.28 15.61 10.28 15.61 11.58 18.06 11.58 18.06 10.27 19.16 10.27 19.16 11.58 21.87 11.58 21.87 10.09 20.87 10.09 20.87 9.49 20.87 8.9 21.87 8.9 21.87 7.41 19.16 7.41 19.16 8.72 18.06 8.72 18.06 7.41 16.6 7.41 16.6 6.83 16.6 6.25 18.06 6.25 18.06 4.93 19.16 4.93 19.16 6.25 21.87 6.25 21.87 4.75 20.87 4.75 20.87 4.16 20.87 3.56 21.87 3.56 21.87 2.07 19.16 2.07 19.16 3.38 18.06 3.38 18.06 2.07 15.61 2.07 15.61 3.38 14.04 3.38 14.04 10.28"/>
            <g class="cls-2">
                <path class="cls-4" d="M21.87,19.16a4.1,4.1,0,0,0-4.24-3.95,4.31,4.31,0,0,0-2.8,1s-.64.36-.64-.41c0-1.86-.29-2.45-2.2-2.45S9.82,14.14,9.82,16c0,.77-.8.37-.8.37a4.36,4.36,0,0,0-2.77-1.16A4.1,4.1,0,0,0,2,19.16a4.1,4.1,0,0,0,4.24,4,4.32,4.32,0,0,0,2.8-1l.08,0a3.23,3.23,0,0,0-.65,2,3.46,3.46,0,0,0,6.92,0,3.26,3.26,0,0,0-.64-2l.08,0a4.32,4.32,0,0,0,2.8,1,4.11,4.11,0,0,0,4.24-4"/>
                <path class="cls-5" d="M21.87,19.16a4.1,4.1,0,0,0-4.24-3.95,4.31,4.31,0,0,0-2.8,1s-.64.36-.64-.41c0-1.86-.29-2.45-2.2-2.45S9.82,14.14,9.82,16c0,.77-.8.37-.8.37a4.36,4.36,0,0,0-2.77-1.16A4.1,4.1,0,0,0,2,19.16a4.1,4.1,0,0,0,4.24,4,4.32,4.32,0,0,0,2.8-1l.08,0a3.23,3.23,0,0,0-.65,2,3.46,3.46,0,0,0,6.92,0,3.26,3.26,0,0,0-.64-2l.08,0a4.32,4.32,0,0,0,2.8,1A4.11,4.11,0,0,0,21.87,19.16Z"/>
            </g>
            <rect class="cls-4" x="12.29" y="1.43" width="1.82" height="13.41"/>
            <g class="cls-2">
                <path class="cls-6" d="M20.06,19.16a2.33,2.33,0,0,0-2.43-2.23,4.55,4.55,0,0,0-1.86.56A2.6,2.6,0,0,1,13.5,18,1.21,1.21,0,0,1,12.63,17c-.23-1.14,0-2.55-.61-2.55s-.33,1.49-.55,2.67c-.13.66-.74.83-1.1.95a2.56,2.56,0,0,1-2.26-.53,4.57,4.57,0,0,0-1.87-.56,2.33,2.33,0,0,0-2.42,2.23,2.33,2.33,0,0,0,2.42,2.22,4.53,4.53,0,0,0,1.87-.56,2,2,0,0,1,2.26-.18c.82.64.42,1.77-.06,2.51a3.32,3.32,0,0,0-.11,1,1.73,1.73,0,0,0,3.46,0,3.52,3.52,0,0,0-.11-1c-.48-.74-.87-1.87-.06-2.51a2.06,2.06,0,0,1,2.27.18,4.5,4.5,0,0,0,1.86.56,2.33,2.33,0,0,0,2.43-2.22"/>
                <path class="cls-5" d="M20.06,19.16a2.33,2.33,0,0,0-2.43-2.23,4.55,4.55,0,0,0-1.86.56A2.6,2.6,0,0,1,13.5,18,1.21,1.21,0,0,1,12.63,17c-.23-1.14,0-2.55-.61-2.55s-.33,1.49-.55,2.67c-.13.66-.74.83-1.1.95a2.56,2.56,0,0,1-2.26-.53,4.57,4.57,0,0,0-1.87-.56,2.33,2.33,0,0,0-2.42,2.23,2.33,2.33,0,0,0,2.42,2.22,4.53,4.53,0,0,0,1.87-.56,2,2,0,0,1,2.26-.18c.82.64.42,1.77-.06,2.51a3.32,3.32,0,0,0-.11,1,1.73,1.73,0,0,0,3.46,0,3.52,3.52,0,0,0-.11-1c-.48-.74-.87-1.87-.06-2.51a2.06,2.06,0,0,1,2.27.18,4.5,4.5,0,0,0,1.86.56A2.33,2.33,0,0,0,20.06,19.16Z"/>
            </g>
            <polygon class="cls-4" points="9.87 10.28 8.3 10.28 8.3 11.58 5.85 11.58 5.85 10.27 4.75 10.27 4.75 11.58 2.04 11.58 2.04 10.09 3.04 10.09 3.04 9.49 3.04 8.9 2.04 8.9 2.04 7.41 4.75 7.41 4.75 8.72 5.85 8.72 5.85 7.41 7.31 7.41 7.31 6.83 7.31 6.25 5.85 6.25 5.85 4.93 4.75 4.93 4.75 6.25 2.04 6.25 2.04 4.75 3.04 4.75 3.04 4.16 3.04 3.56 2.04 3.56 2.04 2.07 4.75 2.07 4.75 3.38 5.85 3.38 5.85 2.07 8.3 2.07 8.3 3.38 9.87 3.38 9.87 10.28"/>
            <rect class="cls-4" x="9.79" y="1.43" width="1.83" height="13.41"/>
            <g class="cls-2">
                <path class="cls-4" d="M14.16,14.13a.53.53,0,0,0,0-1.06H9.74a.54.54,0,0,0,0,1.06Z"/>
                <path class="cls-4" d="M14.16,15.75a.53.53,0,0,0,0-1.06H9.74a.54.54,0,0,0,0,1.06Z"/>
                <path class="cls-4" d="M14.61,15.06a.64.64,0,0,0,0-1.28H9.3a.64.64,0,0,0,0,1.28Z"/>
                <path class="cls-7" d="M.23,17.67V.22H23.8V17.67c0,7.38-6.71,11.1-11.8,11.1C6.52,28.77.22,25.06.23,17.67Z"/>
            </g>
        </g>
    </g>
</svg>
