<svg xmlns="http://www.w3.org/2000/svg" 
    xmlns:xlink="http://www.w3.org/1999/xlink" viewBox="0 0 24.03 29" preserveAspectRatio="xMinYMid">
    <defs>
        <style>.cls-1,.cls-5{fill:none;}.cls-2{clip-path:url(#clip-path);}.cls-3{fill:#fff;}.cls-4{fill:#c2172e;}.cls-5{stroke:#171714;stroke-miterlimit:3.86;stroke-width:0.45px;}</style>
        <clipPath id="clip-path" transform="translate(0)">
            <rect class="cls-1" width="24.03" height="29"/>
        </clipPath>
    </defs>
    <g>
        <g>
            <g class="cls-2">
                <path class="cls-3" d="M23.65.43.47.45v17.2c0,6,5.2,10.94,11.59,10.94s11.59-4.9,11.59-10.94Z" transform="translate(0)"/>
                <path class="cls-4" d="M12,15.34c1.81,0,2.39.11,1.64,1.88l-.31,1.3-2.56,0-.43-1.32c-.75-1.77-.17-1.88,1.65-1.88" transform="translate(0)"/>
            </g>
            <rect class="cls-4" x="0.42" y="0.45" width="23.18" height="13.4"/>
            <polygon class="cls-3" points="11.44 2.05 8.86 2.05 8.86 3.11 8.16 3.11 8.16 2.05 5.45 2.05 5.45 3.89 7.43 3.89 7.43 4.29 7.43 4.68 5.45 4.68 5.45 6.53 8.16 6.53 8.16 5.46 8.86 5.46 8.86 6.53 9.93 6.53 9.93 6.88 9.93 7.24 8.86 7.24 8.86 8.3 8.16 8.3 8.16 7.24 5.45 7.24 5.45 9.08 7.43 9.08 7.43 9.47 7.43 9.87 5.45 9.87 5.45 11.71 8.16 11.71 8.16 10.65 8.86 10.65 8.86 11.71 11.44 11.71 11.44 2.05"/>
            <rect class="cls-3" x="11.06" y="1.13" width="1.83" height="13.4"/>
            <g class="cls-2">
                <path class="cls-4" d="M4.94,18.23h0A3.26,3.26,0,0,0,6.18,23c2.82,1.32,3-1.49,2.24-1.75,0,.56-.16,1.72-1.51,1a2.25,2.25,0,0,1-.66-3.26,2.4,2.4,0,0,1,3.22-1.13c1.36.74.42,1.49-.09,1.76.62.49,3-1.1.4-2.77a3.46,3.46,0,0,0-4.85,1.42" transform="translate(0)"/>
                <path class="cls-4" d="M9.41,22.52a.78.78,0,1,0-.8-.78.79.79,0,0,0,.8.78" transform="translate(0)"/>
                <path class="cls-4" d="M7.51,24.78a.77.77,0,1,0-.8-.77.79.79,0,0,0,.8.77" transform="translate(0)"/>
                <path class="cls-4" d="M12.13,27.67h0a3.36,3.36,0,0,0,3.65-3.39c-.21-3-2.81-1.79-2.68-1,.49-.29,1.62-.72,1.62.8a2.34,2.34,0,0,1-2.6,2.16h-.3A2.34,2.34,0,0,1,9.22,24c0-1.51,1.13-1.09,1.62-.8.13-.76-2.47-2-2.67,1a3.36,3.36,0,0,0,3.66,3.39Z" transform="translate(0)"/>
                <path class="cls-4" d="M19,18.23h0A3.26,3.26,0,0,1,17.77,23c-2.82,1.32-3-1.49-2.24-1.75,0,.56.15,1.72,1.51,1a2.25,2.25,0,0,0,.66-3.26,2.4,2.4,0,0,0-3.22-1.13c-1.36.74-.42,1.49.09,1.76-.62.49-3-1.1-.4-2.77A3.46,3.46,0,0,1,19,18.23" transform="translate(0)"/>
                <path class="cls-4" d="M14.48,22.47a.78.78,0,1,1,.8-.78.79.79,0,0,1-.8.78" transform="translate(0)"/>
                <path class="cls-4" d="M16.43,24.78a.77.77,0,1,1,.8-.77.79.79,0,0,1-.8.77" transform="translate(0)"/>
                <path class="cls-4" d="M12,20.06A1.06,1.06,0,1,0,10.88,19,1.07,1.07,0,0,0,12,20.06" transform="translate(0)"/>
                <path class="cls-4" d="M12,17.81c.5,0,.91-.55.91-1.24s-.41-1.23-.91-1.23-.92.55-.92,1.23.41,1.24.92,1.24" transform="translate(0)"/>
                <path class="cls-4" d="M13.39,14.47a.31.31,0,0,0,0-.61H10.56a.31.31,0,1,0,0,.61Z" transform="translate(0)"/>
                <path class="cls-4" d="M13.39,15.39a.3.3,0,1,0,0-.61H10.56a.3.3,0,1,0,0,.61Z" transform="translate(0)"/>
                <path class="cls-4" d="M13.67,15a.37.37,0,0,0,0-.73h-3.4a.37.37,0,0,0,0,.73Z" transform="translate(0)"/>
                <path class="cls-5" d="M.23,17.67V.22H23.81V17.67c0,7.38-6.71,11.1-11.8,11.1C6.52,28.77.22,25.05.23,17.67Z" transform="translate(0)"/>
            </g>
        </g>
    </g>
</svg>
