<svg xmlns="http://www.w3.org/2000/svg" 
    xmlns:xlink="http://www.w3.org/1999/xlink" viewBox="0 0 24.03 29" preserveAspectRatio="xMinYMid">
    <defs>
        <style>.cls-1,.cls-4,.cls-5,.cls-8,.cls-9{fill:none;}.cls-2{clip-path:url(#clip-path);}.cls-3{fill:#f2db38;}.cls-4,.cls-5,.cls-8,.cls-9{stroke:#171714;}.cls-4{stroke-miterlimit:3.86;stroke-width:0.45px;}.cls-5,.cls-8,.cls-9{stroke-miterlimit:11.47;}.cls-5{stroke-width:0.08px;}.cls-6{fill:#c2172e;}.cls-7{fill:#171714;}.cls-8{stroke-width:0.03px;}.cls-9{stroke-width:0.08px;}</style>
        <clipPath id="clip-path" >
            <rect class="cls-1" width="24.03" height="29"/>
        </clipPath>
    </defs>
    <g>
        <g>
            <g class="cls-2">
                <path class="cls-3" d="M.23,17.67V.23H23.8V17.67c0,7.38-6.71,11.1-11.8,11.1C6.52,28.77.22,25.06.23,17.67" />
                <path class="cls-4" d="M.23,17.67V.23H23.8V17.67c0,7.38-6.71,11.1-11.8,11.1C6.52,28.77.22,25.06.23,17.67Z" />
                <path class="cls-3" d="M3.06,9.78A7.39,7.39,0,0,1,2.88,9a3.23,3.23,0,0,0,1.53.07Z" />
                <path class="cls-5" d="M3,9.78c0-.12-.2-.59-.18-.78a3.24,3.24,0,0,0,1.57.07" />
                <path class="cls-6" d="M11.39,9.07l.15.13c-.82.17-.56.33-1.15.37S9.1,9.68,8.9,9.13a1,1,0,0,1,0-.68c0-.1.21-.31.28-.31s.09.26.11.32c.09.38.26.91,1.6.69Z" />
                <path class="cls-5" d="M11.39,9.07l.15.13c-.82.17-.56.33-1.15.37S9.1,9.68,8.9,9.13a1,1,0,0,1,0-.68c0-.1.21-.31.28-.31s.09.26.11.32c.09.38.26.91,1.6.69Z" />
                <path class="cls-7" d="M13.74,7.75A4.9,4.9,0,0,0,12.68,7a.78.78,0,0,0-.94.62c-.39-.09-1.22.64-1.21.64-.19.08-.36-.1-.47,0s-.07.18-.15.28a.54.54,0,0,0,0,.5,8,8,0,0,0,1.13,0c.31.11.22.27.1.42s-.82.19-.82.19a1.26,1.26,0,0,1,.37.38.25.25,0,0,0,.29.06,1.94,1.94,0,0,0,.61-.35s.31,0,.31,0c.36,0,.64.29,1,.21a4,4,0,0,0,.91-.48,1,1,0,0,0,.39.78,4,4,0,0,1,.78.62c.19.19.21.69.46.57s.31-.67.28-1.06a.74.74,0,0,0-.09-.37c-.33-.43-.68-.55-.63-.51a10,10,0,0,0-1.3-1.75" />
                <path class="cls-3" d="M3.66,13.92s-.52.16-.55.19c-.33.3-.38.65-.69,1,0,0,0,0,.12,0h.8Z" />
                <path class="cls-5" d="M3.69,13.9s-.55.16-.58.2c-.34.31-.4.68-.72,1,0,0,0,0,.12,0s.48,0,.84,0" />
                <path class="cls-3" d="M3.62,13.83A13.71,13.71,0,0,0,3,15.44a1.91,1.91,0,0,0,1.28-.52c0-.48-.12-.72-.06-1Z" />
                <path class="cls-5" d="M3.09,15.1c0,.07-.18.36-.09.38a2.05,2.05,0,0,0,1.36-.54c0-.5-.12-.74-.06-1.06" />
                <path class="cls-3" d="M6.67,23.31c-.11,0-.24,0-.31,0-.41.33-.65.57-1,.87-.12.11.61,0,.85.06Z" />
                <path class="cls-5" d="M6.67,23.28c-.11,0-.25,0-.32,0-.42.35-.67.61-1,.93-.12.12.63,0,.87.06" />
                <path class="cls-3" d="M7,23.16c-.23.28-1.27,1.44-1.13,1.45a1.7,1.7,0,0,0,1.22,0c.09,0,.24-.08.27-.2a6.33,6.33,0,0,0,0-1.08Z" />
                <path class="cls-5" d="M6,24.14c-.24.29-.34.5-.2.5a1.8,1.8,0,0,0,1.28,0c.1-.05.25-.08.28-.21a6.27,6.27,0,0,0,0-1.11" />
                <path class="cls-3" d="M19.29,22.77a1.4,1.4,0,0,0-.6.26,5,5,0,0,0-.32,1.43s.89-.33.87-.34Z" />
                <path class="cls-5" d="M19.31,22.73a1.51,1.51,0,0,0-.65.27,5.18,5.18,0,0,0-.34,1.51s.95-.34.93-.36" />
                <path class="cls-3" d="M19.28,22.4s-.41,2.12-.41,2.12a1.57,1.57,0,0,0,.74-.41c.2-.14.39-.26.47-.45a3.85,3.85,0,0,0-.28-1.33Z" />
                <path class="cls-5" d="M18.82,24.21a1.77,1.77,0,0,1,0,.35,1.67,1.67,0,0,0,.78-.42c.21-.15.42-.27.5-.46a3.85,3.85,0,0,0-.3-1.37" />
                <path class="cls-3" d="M10.53,8.44s.19,0,.17.06-.22.31-.32.21.08-.18.16-.27" />
                <path class="cls-8" d="M10.53,8.44s.19,0,.17.06-.22.31-.32.21S10.46,8.53,10.53,8.44Z" />
                <path class="cls-5" d="M12.25,3.72l-.24,0h-.09a.91.91,0,0,0-1,.85.75.75,0,0,0,.14.45.4.4,0,0,0,.32.14.35.35,0,0,0,.36-.34.33.33,0,0,0-.22-.28.36.36,0,0,1,.16-.11.57.57,0,0,1,.24,0,.57.57,0,0,1,.57.58.55.55,0,0,1-.22.41.53.53,0,0,1,.12.31.57.57,0,0,1-1,.39.56.56,0,0,1-.52.33.57.57,0,0,1-.57-.58.58.58,0,0,1,.06-.2.64.64,0,0,1-.18,0,.66.66,0,0,1-.67-.66.66.66,0,0,1,.23-.48.66.66,0,0,1,.36-1.21A.68.68,0,0,1,10,2.91a.66.66,0,0,1,.66-.66.64.64,0,0,1,.31.09.64.64,0,0,1,.63-.45.63.63,0,0,1,.53.28.65.65,0,0,1,1.18.39A.66.66,0,0,1,14.51,3a.73.73,0,0,1-.2.49,1,1,0,0,1,1,1.06,1,1,0,0,1-.19.58.85.85,0,0,1,.52.8.89.89,0,0,1-.36.71m1.07,2.12a1.25,1.25,0,0,1,.9-.26,1.42,1.42,0,0,1,1.54,1.28,1.39,1.39,0,0,1-.05.42.53.53,0,0,1-.5.41A.45.45,0,0,1,18,9.75a.58.58,0,0,0-.42-.21A.54.54,0,0,0,17,10l-.1,0a.57.57,0,0,0-.58.57.53.53,0,0,0,.31.49.58.58,0,0,0-.12.36.66.66,0,0,0,.67.66c.14,0,.2-.08.31-.16a.6.6,0,0,0,1.15,0,.73.73,0,0,0,.47.23c.75,0,.76-.58.76-1.07,0-.09,0,.07,0,0s-.05,0,0,0c.36,0,.8-.13.79-.62a.65.65,0,0,0-.24-.52.82.82,0,0,0,.41-.7.87.87,0,0,0-.55-.8A.78.78,0,0,0,20.4,8a.89.89,0,0,0-.91-.86h0a.54.54,0,0,0,0-.19.66.66,0,0,0-.66-.66.63.63,0,0,0-.57.29.88.88,0,0,0-1.59-.16,1.1,1.1,0,0,0-.61-.17,1.05,1.05,0,0,0-1,.93" />
                <path class="cls-3" d="M13.61,7.19c.43-.32.89-.34,1.06-.17s0,.86-.16,1Z" />
                <path class="cls-9" d="M13.59,7.17c.45-.34.94-.35,1.11-.18s0,.91-.16,1.1" />
                <path class="cls-3" d="M14.48,8c.27-.23.69-.49,1-.22.43.43-.39,1-.38,1Z" />
                <path class="cls-9" d="M14.46,8c.28-.24.73-.52,1-.23.45.45-.41,1.09-.4,1.08" />
                <path class="cls-3" d="M15.09,8.85a1.32,1.32,0,0,1,.64-.26,1.31,1.31,0,0,1,1.05.55l-.39,0a2.2,2.2,0,0,0-1.45.46l.4-.25A7,7,0,0,0,13,6.75l-.34.41c0-.09.17-.17.26-.3a2,2,0,0,0,.2-1c0-.1,0-.18,0-.28a1.25,1.25,0,0,1,.65,1.15,1,1,0,0,1-.1.43Z" />
                <path class="cls-5" d="M14.74,9.87s.09-.06.09-.13,0-.14-.09-.14-.09.06-.09.14S14.69,9.87,14.74,9.87Zm-1.36-4a2.75,2.75,0,0,0,.07-.5c0-.07,0-.14,0-.22s0-.31,0-.34A1.63,1.63,0,0,0,12.26,3.7m2.88,5.35a1.33,1.33,0,0,1,.66-.27,1.32,1.32,0,0,1,1.07.58l-.4,0A2.2,2.2,0,0,0,15,9.81l.4-.26A7.2,7.2,0,0,0,13,6.86l-.35.42c0-.09.18-.18.26-.31a2.09,2.09,0,0,0,.21-1c0-.11,0-.19,0-.3a1.32,1.32,0,0,1,.66,1.2,1,1,0,0,1-.1.45" />
                <path class="cls-3" d="M12.64,8.33a.22.22,0,1,0-.22-.22.22.22,0,0,0,.22.22" />
                <path class="cls-3" d="M13,8.23c.07.15.14.22.14,0a.57.57,0,0,0-.61-.57c-.27,0,0,.16,0,.16a.66.66,0,0,1,.48.36" />
                <path class="cls-3" d="M13.06,20.08c-.06.21-.71.7-1,.37a1.4,1.4,0,0,1,.74-2.09Z" />
                <path class="cls-5" d="M13.1,20.11c-.06.21-.76.72-1,.38a1.43,1.43,0,0,1,.79-2.15" />
                <path class="cls-3" d="M14.08,20a.88.88,0,0,1-1.26.28c-.7-.77,0-1.91.29-1.78Z" />
                <path class="cls-5" d="M14.11,20a.92.92,0,0,1-1.31.29c-.72-.8-.05-2,.3-1.85" />
                <path class="cls-7" d="M13.11,18.48c-.1.06-.1.26,0,.39a.35.35,0,0,0,.19.16s-.12.08-.06.37.54.4.54.4a1.23,1.23,0,0,0,.06.41c.07.16.66,0,.83.08s.19.16.29.21a.68.68,0,0,0,.85-.24.56.56,0,0,0,.68.32c.23,0,.43-.19.39-.33a.75.75,0,0,0,.64.09.62.62,0,0,0,.39-.62c.09,0,.12-.11.15-.09.44.25.45.77.63,1.18s.21.68.34,1a.52.52,0,0,1,0,.45c-.19.2-.1.32-.11.57s1.2.42,1.16-.09c0-.2.27-.23.36-.31s0-.22-.1-.3-.28-.26-.41-.39a10.81,10.81,0,0,1-.79-2.15c-.2-.39.1-.89-.13-1.25-.09-.15-.4-.12-.6,0,0,0-.17.07-.27,0s0-.19,0-.3a.44.44,0,0,0-.53-.28.47.47,0,0,0-.1-.42A.51.51,0,0,0,17,17.2a1.81,1.81,0,0,0-.34-1,4.56,4.56,0,0,0,.86-.07c.16,0,.27-.33.37-.31a1.24,1.24,0,0,0,.64,0c.13,0,.36-.16.36-.39a.69.69,0,0,0,.84-.55c.13.05.13.08.37,0a.7.7,0,0,0,.36-.54,1.06,1.06,0,0,0,.5-.26c.15-.2-.07-.52-.07-.52s.36-.34.19-.56a.51.51,0,0,0-.44-.24.56.56,0,0,0-.32-.59c-.19-.08-.54.22-.54.22s-.11-.21-.46-.1a.68.68,0,0,0-.43.48.53.53,0,0,0-.55.15c-.21.27-.11.43-.11.43a.88.88,0,0,0-.22,0,.64.64,0,0,0-.33.74c-.12,0-.24.1-.24.16,0,.63-.25,1.45-.94,1.51-.83-1-1.89-1-2.87-1.76-.11-.09-.3-.26-.26-.39s.27-.38.2-.72c.19-.12.54-.29.47-.63a.54.54,0,0,0,.3-.18c.14-.13.18-.57.18-.57a.93.93,0,0,0,.35-.19.69.69,0,0,0,0-.51s-.06,0-.09,0,.08,0,0,0a3.08,3.08,0,0,1-.81-.6s-.09,0-.09,0c0-.18-.06-.41-.19-.45s-.37.21-.58.26a1.4,1.4,0,0,1-.64,0c-.18,0-.5.28-.5.28a1.37,1.37,0,0,0-.72,0c-.25.11-.26.23-.26.23a.86.86,0,0,0-.45-.08.89.89,0,0,0-.39.3s-.1-.11-.44,0-.4.62-.4.62-.62.09-.73.44.13.51,0,.7a1.4,1.4,0,0,0-.59.4,4.84,4.84,0,0,1-1.1-.79.49.49,0,0,0-.58-.06c-.53.21-1.11.79-2.13,1.24-.18.07-.45,0-.61.13s-.11,0-.36.45,1.12.41,1.18.23.07-.22.1-.15c.09.23.41.33.49.23a3.82,3.82,0,0,1,1.16-1,.87.87,0,0,1,.22,0c.65,0,.83.71,1.24,1.1.12.11,0,.44.11.64s.49.13.52.22a.7.7,0,0,0,1.07.43s.14-.11.15-.09c.07.18.24.21.36.28a8.89,8.89,0,0,0,1.63.7s.72.27.79.27c-.53,0-.57-.23-1.12,0-.26.1-.46-.24-.73-.11s-.36.17-.38.41a.63.63,0,0,0-.76.14c-.44.7,0,.17-.67.59a.54.54,0,0,0-.16.24.71.71,0,0,0,0,.53c-.2,0-.23.26-.29.39s.37.76.37.76a3.8,3.8,0,0,0,0,.46.4.4,0,0,0,.29.36l.35.09s.15.37.77.34c.11,0,.1.26,0,.32-.93.55-2,1.4-2.81,1.32-.13,0-.46.69-.47.83s.7.34.82.27a.22.22,0,0,0,.11-.18c.06-.1.16-.15.26-.1a.74.74,0,0,1,.11.15s0,.14.06.14c.34,0,.38-.36.53-.55.55-.67,1.53-.81,2.3-1.15.26-.11.7-.13.73-.45,0-.12.06-.32,0-.4a1.89,1.89,0,0,1-.3-.4c.22-.07.44-.16.88-.3A1.08,1.08,0,0,1,12,19.16c.34-.72.88-.67.88-.67Z" />
                <path class="cls-3" d="M4.75,10c-.3,0-.68.41-.94.54s-.36.1-.62-.12a1.29,1.29,0,0,1-.46-.76,15.07,15.07,0,0,0,1.95-.07Z" />
                <path class="cls-5" d="M4.75,10c-.3,0-.69.43-1,.56s-.37.11-.63-.12a1.35,1.35,0,0,1-.47-.79c.2,0,.26,0,.28-.11" />
                <path class="cls-7" d="M4,9.57l0-.4c.43-.4.76-.13,1.13,0,.07,0,.22.06.21.08a4.3,4.3,0,0,1,1,.07,8.6,8.6,0,0,1,1.44.17c.1,0,.16.2.25.31s.12.49.21.72a3.05,3.05,0,0,1,.35,1.08,1.64,1.64,0,0,1-.2.44c-.08.14.16.32,0,.47l-.26.21a.28.28,0,0,1-.29-.12c-.47-.65-.27-1.54-.74-2.13s-1.12-.41-1.7-.32c-.13,0-.29.17-.44.26s-.32,0-.3-.1c0-.29.17-.33-.27-.22Z" />
            </g>
        </g>
    </g>
</svg>
