<svg xmlns="http://www.w3.org/2000/svg" 
    xmlns:xlink="http://www.w3.org/1999/xlink" viewBox="0 0 24.03 29" preserveAspectRatio="xMinYMid">
    <defs>
        <style>.cls-1,.cls-4{fill:none;}.cls-2{clip-path:url(#clip-path);}.cls-3{fill:#f2db38;}.cls-4{stroke:#171714;stroke-miterlimit:3.86;stroke-width:0.45px;}.cls-5{fill:#171714;}.cls-6{fill:#fff;}.cls-7{fill:#c2172e;}</style>
        <clipPath id="clip-path" >
            <rect class="cls-1" width="24.03" height="29"/>
        </clipPath>
    </defs>
    <g>
        <g>
            <g class="cls-2">
                <path class="cls-3" d="M.23,17.67V.23H23.81V17.67c0,7.38-6.71,11.1-11.8,11.1C6.52,28.77.22,25.06.23,17.67" />
                <path class="cls-4" d="M.23,17.67V.23H23.81V17.67c0,7.38-6.71,11.1-11.8,11.1C6.52,28.77.22,25.06.23,17.67Z" />
                <path class="cls-5" d="M12.29,9.28a1.45,1.45,0,0,1,1,.39,2.22,2.22,0,0,1,1-.34,1,1,0,0,1,.68.21,1.22,1.22,0,0,1,.35-.18,1,1,0,0,1,.85.17A7,7,0,0,0,17.4,8.25a3.21,3.21,0,0,0,.26-3c-.53-1-1.9-1.83-1.32-3.19.11-.23.23-.54.51-.63a1.66,1.66,0,0,0,.08,1.22c.85,1.08,2.14,1.82,2.54,3.13.68,1.59-.4,2.94-1.13,4.22,0,0,0,0,0,0a3.7,3.7,0,0,1,3.06.4,2.51,2.51,0,0,1-2.07,1.68c-.44.09-.9-.06-1.31,0a4.23,4.23,0,0,1-1.52,3.16c-.9.48-.9,1.42-1.21,2.18a3.38,3.38,0,0,0,.3,2.94,1.93,1.93,0,0,1-.41,1.78,3.23,3.23,0,0,1,.64,1.93,3.48,3.48,0,0,1-3.57,3.39,3.52,3.52,0,0,1-3.62-3.39,3.23,3.23,0,0,1,.64-1.93,1.93,1.93,0,0,1-.41-1.78,3.38,3.38,0,0,0,.29-2.94c-.31-.76-.31-1.7-1.21-2.18a4.25,4.25,0,0,1-1.52-3.16c-.41-.09-.87.06-1.31,0A2.51,2.51,0,0,1,3,10.43,3.7,3.7,0,0,1,6.1,10s0,0,0,0C5.41,8.7,4.33,7.34,5,5.76c.4-1.31,1.69-2.06,2.54-3.13A1.66,1.66,0,0,0,7.63,1.4c.28.09.39.4.5.63.57,1.36-.8,2.16-1.32,3.19a3.22,3.22,0,0,0,.26,3A7.14,7.14,0,0,0,8.28,9.53a1,1,0,0,1,.85-.17,1.24,1.24,0,0,1,.35.18,1,1,0,0,1,.69-.21,2.23,2.23,0,0,1,1,.34,1.45,1.45,0,0,1,1-.39Z" />
                <path class="cls-3" d="M10.22,22.87a5.21,5.21,0,0,0,4,0l0,0h0a2.24,2.24,0,0,1,.39,1.26,2.4,2.4,0,0,1-4.79,0,2.22,2.22,0,0,1,.36-1.21Z" />
                <path class="cls-5" d="M13.15,24.84v-2H11.32v1.95a.91.91,0,0,0,1.83,0Z" />
                <path class="cls-3" d="M6.66,10.89c0,.17-.21,0-.29,0a2.14,2.14,0,0,0-2.06-.1c0,.28.39.42.59.6a3.09,3.09,0,0,0,.95.25s-.06.08,0,.11a2,2,0,0,1-1.8-1,.88.88,0,0,1,.41-.23,2.22,2.22,0,0,1,2.24.32" />
                <path class="cls-3" d="M10.85,12a4.34,4.34,0,0,1,.74,2.34,27.93,27.93,0,0,1-.7,6.82s-.16,0-.15-.08c.36-2.76,1.21-5.66.29-8.46a1.38,1.38,0,0,0-.7-.66c-.67-.26-1.41.4-2-.14.8.14,1.8-.44,2.49.19" />
                <path class="cls-6" d="M8.75,12.4a1,1,0,0,0,0,.15.88.88,0,0,0,.9.85.9.9,0,0,0,.88-.64Z" />
                <path class="cls-3" d="M17.81,10.89c0,.17.21,0,.29,0a2.14,2.14,0,0,1,2.06-.1c0,.28-.39.42-.58.6a3.09,3.09,0,0,1-1,.25s.07.08,0,.11a2,2,0,0,0,1.8-1,.88.88,0,0,0-.41-.23,2.22,2.22,0,0,0-2.24.32" />
                <path class="cls-3" d="M13.62,12a4.34,4.34,0,0,0-.74,2.34,27.93,27.93,0,0,0,.7,6.82s.16,0,.15-.08c-.36-2.76-1.21-5.66-.3-8.46a1.37,1.37,0,0,1,.71-.66c.67-.26,1.4.4,2-.14-.8.14-1.8-.44-2.49.19" />
                <path class="cls-3" d="M12.24,22.66a11.4,11.4,0,0,1-1.37-.09c0-.06,0-.16,0-.18a9.94,9.94,0,0,0,2.65,0s.06.12,0,.18a11.39,11.39,0,0,1-1.37.09" />
                <path class="cls-7" d="M12.24,26.59a2.54,2.54,0,0,0,2.61-2.46A2.44,2.44,0,0,0,13.59,22l.34-.65a3.16,3.16,0,0,1,1.68,2.76,3.29,3.29,0,0,1-3.38,3.19,3.29,3.29,0,0,1-3.38-3.19,3.16,3.16,0,0,1,1.68-2.76l.34.65a2.45,2.45,0,0,0-1.26,2.11,2.54,2.54,0,0,0,2.62,2.46" />
                <path class="cls-7" d="M12.94,24.84V23.08H11.53v1.79a.68.68,0,0,0,.7.64.69.69,0,0,0,.7-.64Z" />
                <path class="cls-6" d="M15.72,12.4a1,1,0,0,1,0,.15.88.88,0,0,1-.9.85.9.9,0,0,1-.88-.64Z" />
                <path class="cls-5" d="M9.67,13.06a.27.27,0,1,0,0-.53.27.27,0,1,0,0,.53" />
                <path class="cls-5" d="M14.8,13.06a.27.27,0,1,1,.31-.26.29.29,0,0,1-.31.26" />
            </g>
        </g>
    </g>
</svg>
