<svg xmlns="http://www.w3.org/2000/svg" 
    xmlns:xlink="http://www.w3.org/1999/xlink" viewBox="0 0 24.03 29" preserveAspectRatio="xMinYMid">
    <defs>
        <style>.cls-1,.cls-6,.cls-7{fill:none;}.cls-2{clip-path:url(#clip-path);}.cls-3{fill:#69a33d;}.cls-4{fill:#fff;}.cls-5{fill:#f2db38;}.cls-6,.cls-7{stroke:#171714;}.cls-6{stroke-miterlimit:11.47;stroke-width:0.05px;}.cls-7{stroke-miterlimit:3.86;stroke-width:0.45px;}</style>
        <clipPath id="clip-path" >
            <rect class="cls-1" width="24.03" height="29"/>
        </clipPath>
    </defs>
    <g>
        <g>
            <g class="cls-2">
                <path class="cls-3" d="M23.58.45.39.48v17.2c0,6,5.2,10.94,11.59,10.94s11.59-4.9,11.59-10.94Z" />
            </g>
            <rect class="cls-4" x="0.4" y="0.48" width="23.18" height="13.41"/>
            <g class="cls-2">
                <path class="cls-5" d="M4.4,4.18c0,.06,0,.33,0,.34s.23.09.56.09.34-.16.44-.22l.19-.16s-.16.66-.16.66h-2l.33-.33a1.3,1.3,0,0,0,0-.21V2.74c0-.43,0-.53-.08-.57L3.6,2h1l-.14.18c-.09.1-.1.19-.1.53Z" />
                <path class="cls-6" d="M4.4,4.18c0,.06,0,.33,0,.34s.23.09.56.09.34-.16.44-.22l.19-.16s-.16.66-.16.66h-2l.33-.33a1.3,1.3,0,0,0,0-.21V2.74c0-.43,0-.53-.08-.57L3.6,2h1l-.14.18c-.09.1-.1.19-.1.53Z" />
                <path class="cls-5" d="M7.57,2.7c0-.42,0-.46-.11-.54L7.34,2h1a2,2,0,0,1,1.06.15.56.56,0,0,1,.3.56.67.67,0,0,1-.42.51,0,0,0,0,0,0,0,0,0,0,0,0,0,0c.17,0,.48.3.48.79a.7.7,0,0,1-.26.57,1.66,1.66,0,0,1-1,.24H7.29l.17-.21c.1-.08.12-.17.12-.43Z" />
                <path class="cls-6" d="M7.57,2.7c0-.42,0-.46-.11-.54L7.34,2h1a2,2,0,0,1,1.06.15.56.56,0,0,1,.3.56.67.67,0,0,1-.42.51,0,0,0,0,0,0,0,0,0,0,0,0,0,0c.17,0,.48.3.48.79a.7.7,0,0,1-.26.57,1.66,1.66,0,0,1-1,.24H7.29l.17-.21c.1-.08.12-.17.12-.43Z" />
                <path class="cls-5" d="M6.89,4.91l-.17-.21c-.11-.08-.13-.17-.13-.43V2.7c0-.42,0-.46.11-.54L6.83,2H5.74l.12.12c.15.08.12.13.12.54V4.28c0,.26,0,.35-.13.43l-.17.21Z" />
                <path class="cls-6" d="M6.89,4.91l-.17-.21c-.11-.08-.13-.17-.13-.43V2.7c0-.42,0-.46.11-.54L6.83,2H5.74l.12.12c.15.08.12.13.12.54V4.28c0,.26,0,.35-.13.43l-.17.21Z" />
                <path class="cls-4" d="M8.13,4.18c0,.38,0,.43.06.43.71,0,1-.05,1-.58s-.48-.61-.94-.61c-.1,0-.1,0-.1.12Z" />
                <path class="cls-6" d="M8.13,4.18c0,.38,0,.43.06.43.71,0,1-.05,1-.58s-.48-.61-.94-.61c-.1,0-.1,0-.1.12Z" />
                <path class="cls-4" d="M8.13,3.15c0,.07,0,.07.1.07.33,0,.89,0,.89-.47s-.42-.48-.69-.48-.29,0-.29,0Z" />
                <path class="cls-6" d="M8.13,3.15c0,.07,0,.07.1.07.33,0,.89,0,.89-.47s-.42-.48-.69-.48-.29,0-.29,0Z" />
                <path class="cls-5" d="M13.24,2.73a1.18,1.18,0,0,0-.13-.53l-.16-.14,1,0a2.12,2.12,0,0,1,.85.09.77.77,0,0,1,.43.63.7.7,0,0,1-.54.64l.38.4c.32.53.06.55.28.89l.24.24h-.23c-.51,0-.51,0-.7-.31a9.31,9.31,0,0,0-.28-.9c-.08-.13-.39-.1-.53-.1s-.08,0-.08.06v.59a1.07,1.07,0,0,0,.11.46l.1.18H13l.11-.14c.07-.08.08-.19.08-.46Z" />
                <path class="cls-6" d="M13.24,2.73a1.18,1.18,0,0,0-.13-.53l-.16-.14,1,0a2.12,2.12,0,0,1,.85.09.77.77,0,0,1,.43.63.7.7,0,0,1-.54.64l.38.4c.32.53.06.55.28.89l.24.24h-.23c-.51,0-.51,0-.7-.31a9.31,9.31,0,0,0-.28-.9c-.08-.13-.39-.1-.53-.1s-.08,0-.08.06v.59a1.07,1.07,0,0,0,.11.46l.1.18H13l.11-.14c.07-.08.08-.19.08-.46Z" />
                <path class="cls-4" d="M13.84,3.15c0,.07,0,.07.09.07.41,0,.66,0,.66-.44s-.22-.5-.68-.5c0,0-.08,0-.08.06Z" />
                <path class="cls-6" d="M13.84,3.15c0,.07,0,.07.09.07.41,0,.66,0,.66-.44s-.22-.5-.68-.5c0,0-.08,0-.08.06Z" />
                <path class="cls-5" d="M18.3,2.67c0-.46,0-.41-.12-.55L18.06,2h2.07c0,.07,0,.42.07.6a2.4,2.4,0,0,0-.5-.31,1.27,1.27,0,0,0-.35,0h-.29c-.19,0-.19,0-.19.26v.52c0,.11,0,.12.1.12h.21c.38,0,.53,0,.72-.1L20,3s0,.75,0,.75l-.2-.17c-.08-.12-.34-.11-.59-.11H19c-.1,0-.1,0-.1.12v.55c0,.34,0,.35.07.36a1.65,1.65,0,0,0,.49,0,.86.86,0,0,0,.83-.35,1.88,1.88,0,0,1-.19.68H18l.15-.14c.17-.17.17,0,.17-.5Z" />
                <path class="cls-6" d="M18.3,2.67c0-.46,0-.41-.12-.55L18.06,2h2.07c0,.07,0,.42.07.6a2.4,2.4,0,0,0-.5-.31,1.27,1.27,0,0,0-.35,0h-.29c-.19,0-.19,0-.19.26v.52c0,.11,0,.12.1.12h.21c.38,0,.53,0,.72-.1L20,3s0,.75,0,.75l-.2-.17c-.08-.12-.34-.11-.59-.11H19c-.1,0-.1,0-.1.12v.55c0,.34,0,.35.07.36a1.65,1.65,0,0,0,.49,0,.86.86,0,0,0,.83-.35,1.88,1.88,0,0,1-.19.68H18l.15-.14c.17-.17.17,0,.17-.5Z" />
                <path class="cls-5" d="M19.23,1.8a1,1,0,0,0,.39-.54s.48,0,.48,0a.83.83,0,0,1-.87.53" />
                <path class="cls-6" d="M19.23,1.8a1,1,0,0,0,.39-.54s.48,0,.48,0A.83.83,0,0,1,19.23,1.8Z" />
                <path class="cls-5" d="M5.86,10.65v.68c0,.29,0,.39.16.54l.13.15H5l.1-.13a.72.72,0,0,0,.2-.56V9.59a.38.38,0,0,0-.13-.33L5,9.12H6a2,2,0,0,1,.94.13.81.81,0,0,1,.39.68.8.8,0,0,1-.76.7H5.86" />
                <path class="cls-6" d="M5.86,10.65v.68c0,.29,0,.39.16.54l.13.15H5l.1-.13a.72.72,0,0,0,.2-.56V9.59a.38.38,0,0,0-.13-.33L5,9.12H6a2,2,0,0,1,.94.13.81.81,0,0,1,.39.68.8.8,0,0,1-.76.7Z" />
                <path class="cls-4" d="M6.21,10.37c.29,0,.47-.12.47-.52s-.6-.44-.74-.44-.08,0-.08.08v.88h.35" />
                <path class="cls-6" d="M6.21,10.37c.29,0,.47-.12.47-.52s-.6-.44-.74-.44-.08,0-.08.08v.88Z" />
                <path class="cls-5" d="M8.05,11.27H7.81a1.1,1.1,0,0,0-.17.56l.07.17H6.82l.2-.16A3.86,3.86,0,0,0,7.55,11L8.3,9l1.16,2.43a.86.86,0,0,0,.3.41L9.9,12H8.74l.17-.16c.09-.1-.08-.31-.15-.52,0,0,0-.07-.15-.07Z" />
                <path class="cls-6" d="M8.05,11.27H7.81a1.1,1.1,0,0,0-.17.56l.07.17H6.82l.2-.16A3.86,3.86,0,0,0,7.55,11L8.3,9l1.16,2.43a.86.86,0,0,0,.3.41L9.9,12H8.74l.17-.16c.09-.1-.08-.31-.15-.52,0,0,0-.07-.15-.07Z" />
                <path class="cls-4" d="M8.66,11.06l-.37-.95s-.38,1-.38,1Z" />
                <path class="cls-6" d="M8.66,11.06l-.37-.95s-.38,1-.38,1Z" />
                <path class="cls-5" d="M10.47,2.67c0-.46,0-.41-.12-.55L10.23,2H12.3c0,.07,0,.42.07.6a2.42,2.42,0,0,0-.49-.31,1.33,1.33,0,0,0-.35,0h-.29c-.19,0-.19,0-.19.26v.52c0,.11,0,.12.1.12h.21c.38,0,.54,0,.72-.1l.07,0s0,.75,0,.75L12,3.63c-.08-.12-.34-.11-.59-.11h-.21c-.1,0-.1,0-.1.12v.55c0,.34,0,.35.07.36a1.62,1.62,0,0,0,.49,0,.85.85,0,0,0,.83-.35,2,2,0,0,1-.2.68H10.2l.15-.14c.1-.1.12-.12.12-.5Z" />
                <path class="cls-6" d="M10.47,2.67c0-.46,0-.41-.12-.55L10.23,2H12.3c0,.07,0,.42.07.6a2.42,2.42,0,0,0-.49-.31,1.33,1.33,0,0,0-.35,0h-.29c-.19,0-.19,0-.19.26v.52c0,.11,0,.12.1.12h.21c.38,0,.54,0,.72-.1l.07,0s0,.75,0,.75L12,3.63c-.08-.12-.34-.11-.59-.11h-.21c-.1,0-.1,0-.1.12v.55c0,.34,0,.35.07.36a1.62,1.62,0,0,0,.49,0,.85.85,0,0,0,.83-.35,2,2,0,0,1-.2.68H10.2l.15-.14c.1-.1.12-.12.12-.5Z" />
                <path class="cls-5" d="M17.9,2a5.25,5.25,0,0,1,.07.69.89.89,0,0,0-.63-.4h-.18c-.11,0-.12,0-.12.19V4.28c0,.46,0,.31.11.47l.17.18H16.19l.17-.18c.09-.16.11,0,.11-.47V2.53c0-.18,0-.19-.12-.19h-.18a.87.87,0,0,0-.62.4A5.25,5.25,0,0,1,15.62,2Z" />
                <path class="cls-6" d="M17.9,2a5.25,5.25,0,0,1,.07.69.89.89,0,0,0-.63-.4h-.18c-.11,0-.12,0-.12.19V4.28c0,.46,0,.31.11.47l.17.18H16.19l.17-.18c.09-.16.11,0,.11-.47V2.53c0-.18,0-.19-.12-.19h-.18a.87.87,0,0,0-.62.4A5.25,5.25,0,0,1,15.62,2Z" />
                <path class="cls-5" d="M16.32,12.07l-.18-.21c-.11-.08-.13-.17-.13-.43V9.77c0-.42,0-.38.12-.46l.13-.12H15.17l.12.12c.14.08.11,0,.11.46v1.66c0,.26,0,.35-.13.43l-.18.21Z" />
                <path class="cls-6" d="M16.32,12.07l-.18-.21c-.11-.08-.13-.17-.13-.43V9.77c0-.42,0-.38.12-.46l.13-.12H15.17l.12.12c.14.08.11,0,.11.46v1.66c0,.26,0,.35-.13.43l-.18.21Z" />
                <path class="cls-5" d="M12.54,9.81a1.11,1.11,0,0,0-.14-.53l-.15-.14,1,0a2,2,0,0,1,.85.09.77.77,0,0,1,.42.63.7.7,0,0,1-.54.64l.38.4c.31.53.07.55.27.89l.25.23a1.85,1.85,0,0,1-.23,0c-.51,0-.52,0-.7-.31s-.12-.63-.28-.9-.39-.1-.54-.1-.07,0-.07.06v.59a1.12,1.12,0,0,0,.12.46l.1.18h-1l.11-.15c.07-.08.08-.19.08-.46Z" />
                <path class="cls-6" d="M12.54,9.81a1.11,1.11,0,0,0-.14-.53l-.15-.14,1,0a2,2,0,0,1,.85.09.77.77,0,0,1,.42.63.7.7,0,0,1-.54.64l.38.4c.31.53.07.55.27.89l.25.23a1.85,1.85,0,0,1-.23,0c-.51,0-.52,0-.7-.31s-.12-.63-.28-.9-.39-.1-.54-.1-.07,0-.07.06v.59a1.12,1.12,0,0,0,.12.46l.1.18h-1l.11-.15c.07-.08.08-.19.08-.46Z" />
                <path class="cls-4" d="M13.13,10.23c0,.07,0,.07.09.07.41,0,.66,0,.66-.44s-.23-.49-.68-.49c0,0-.09,0-.09.06Z" />
                <path class="cls-6" d="M13.13,10.23c0,.07,0,.07.09.07.41,0,.66,0,.66-.44s-.23-.49-.68-.49c0,0-.09,0-.09.06Z" />
                <path class="cls-5" d="M16.89,9.75c0-.46,0-.41-.12-.55l-.12-.08h2.07c0,.07,0,.42.07.6a2.63,2.63,0,0,0-.49-.31,1.35,1.35,0,0,0-.36,0h-.29c-.19,0-.19,0-.19.26v.52c0,.11,0,.12.1.12h.21c.38,0,.54.05.72-.1l.07,0s0,.75,0,.75l-.19-.17c-.08-.12-.34-.11-.59-.11h-.21c-.1,0-.1,0-.1.12v.55c0,.34,0,.35.07.37a1.62,1.62,0,0,0,.5,0,.87.87,0,0,0,.83-.35,2,2,0,0,1-.2.68H17.22l-.61,0,.16-.15c.1-.1.12-.12.12-.5Z" />
                <path class="cls-6" d="M16.89,9.75c0-.46,0-.41-.12-.55l-.12-.08h2.07c0,.07,0,.42.07.6a2.63,2.63,0,0,0-.49-.31,1.35,1.35,0,0,0-.36,0h-.29c-.19,0-.19,0-.19.26v.52c0,.11,0,.12.1.12h.21c.38,0,.54.05.72-.1l.07,0s0,.75,0,.75l-.19-.17c-.08-.12-.34-.11-.59-.11h-.21c-.1,0-.1,0-.1.12v.55c0,.34,0,.35.07.37a1.62,1.62,0,0,0,.5,0,.87.87,0,0,0,.83-.35,2,2,0,0,1-.2.68H17.22l-.61,0,.16-.15c.1-.1.12-.12.12-.5Z" />
                <path class="cls-5" d="M12,9.12a5.34,5.34,0,0,1,.07.69.88.88,0,0,0-.62-.4h-.18c-.11,0-.12,0-.12.19v1.75c0,.46,0,.31.1.47l.17.18H10.28l.17-.18c.1-.16.11,0,.11-.47V9.6c0-.18,0-.19-.12-.19h-.18a.86.86,0,0,0-.62.4,4.68,4.68,0,0,1,.07-.69Z" />
                <path class="cls-6" d="M12,9.12a5.34,5.34,0,0,1,.07.69.88.88,0,0,0-.62-.4h-.18c-.11,0-.12,0-.12.19v1.75c0,.46,0,.31.1.47l.17.18H10.28l.17-.18c.1-.16.11,0,.11-.47V9.6c0-.18,0-.19-.12-.19h-.18a.86.86,0,0,0-.62.4,4.68,4.68,0,0,1,.07-.69Z" />
                <path class="cls-5" d="M10,6.18c0-.46,0-.41-.12-.55l-.12-.08h2.07c0,.07,0,.41.07.6a2.58,2.58,0,0,0-.5-.3,1.28,1.28,0,0,0-.35,0h-.3c-.18,0-.18,0-.18.26v.52c0,.11,0,.12.1.12h.21c.38,0,.54,0,.72-.09l.06-.05V7.3l-.19-.17C11.4,7,11.14,7,10.89,7h-.21c-.1,0-.1,0-.1.12v.55c0,.33,0,.35.07.36a1.89,1.89,0,0,0,.49,0A.88.88,0,0,0,12,7.75a1.79,1.79,0,0,1-.2.67H9.67l.15-.14c.16-.17.17,0,.17-.49Z" />
                <path class="cls-6" d="M10,6.18c0-.46,0-.41-.12-.55l-.12-.08h2.07c0,.07,0,.41.07.6a2.58,2.58,0,0,0-.5-.3,1.28,1.28,0,0,0-.35,0h-.3c-.18,0-.18,0-.18.26v.52c0,.11,0,.12.1.12h.21c.38,0,.54,0,.72-.09l.06-.05V7.3l-.19-.17C11.4,7,11.14,7,10.89,7h-.21c-.1,0-.1,0-.1.12v.55c0,.33,0,.35.07.36a1.89,1.89,0,0,0,.49,0A.88.88,0,0,0,12,7.75a1.79,1.79,0,0,1-.2.67H9.67l.15-.14c.16-.17.17,0,.17-.49Z" />
                <path class="cls-5" d="M14.52,5.55a4.6,4.6,0,0,1,.07.69.87.87,0,0,0-.62-.4h-.18c-.11,0-.12,0-.12.19V7.79c0,.46,0,.3.1.47l.17.18H12.82L13,8.25c.1-.16.11,0,.11-.47V6c0-.18,0-.19-.12-.19H12.8a.88.88,0,0,0-.62.4,4.69,4.69,0,0,1,.07-.69Z" />
                <path class="cls-6" d="M14.52,5.55a4.6,4.6,0,0,1,.07.69.87.87,0,0,0-.62-.4h-.18c-.11,0-.12,0-.12.19V7.79c0,.46,0,.3.1.47l.17.18H12.82L13,8.25c.1-.16.11,0,.11-.47V6c0-.18,0-.19-.12-.19H12.8a.88.88,0,0,0-.62.4,4.69,4.69,0,0,1,.07-.69Z" />
                <path class="cls-7" d="M.23,17.67V.23H23.8V17.67c0,7.38-6.71,11.1-11.8,11.1C6.52,28.77.22,25.05.23,17.67Z" />
            </g>
        </g>
    </g>
</svg>
